<svg width="28" height="28" viewBox="0 0 28 28" fill="none" xmlns="http://www.w3.org/2000/svg">
<path d="M12.6 13.1H13.1V12.6V8.4C13.1 7.90614 13.5061 7.5 14 7.5C14.4939 7.5 14.9 7.90614 14.9 8.4V12.6V13.1H15.4H19.6C20.0939 13.1 20.5 13.5061 20.5 14C20.5 14.4939 20.0939 14.9 19.6 14.9H15.4H14.9V15.4V19.6C14.9 20.0939 14.4939 20.5 14 20.5C13.5061 20.5 13.1 20.0939 13.1 19.6V15.4V14.9H12.6H8.4C7.90614 14.9 7.5 14.4939 7.5 14C7.5 13.5061 7.90614 13.1 8.4 13.1H12.6ZM0.5 14C0.5 6.54814 6.54814 0.5 14 0.5C21.4519 0.5 27.5 6.54814 27.5 14C27.5 21.4519 21.4519 27.5 14 27.5C6.54814 27.5 0.5 21.4519 0.5 14ZM2.3 14C2.3 20.4501 7.54986 25.7 14 25.7C20.4501 25.7 25.7 20.4501 25.7 14C25.7 7.54986 20.4501 2.3 14 2.3C7.54986 2.3 2.3 7.54986 2.3 14Z" fill="#DBDADA" stroke="#DBDADA"/>
</svg>
