<svg width="28" height="28" viewBox="0 0 28 28" fill="none" xmlns="http://www.w3.org/2000/svg">
<path fill-rule="evenodd" clip-rule="evenodd" d="M14 0C6.272 0 0 6.272 0 14C0 21.728 6.272 28 14 28C21.728 28 28 21.728 28 14C28 6.272 21.728 0 14 0ZM14 7C13.23 7 12.6 7.63 12.6 8.4V12.6H8.4C7.63 12.6 7 13.23 7 14C7 14.77 7.63 15.4 8.4 15.4H12.6V19.6C12.6 20.37 13.23 21 14 21C14.77 21 15.4 20.37 15.4 19.6V15.4H19.6C20.37 15.4 21 14.77 21 14C21 13.23 20.37 12.6 19.6 12.6H15.4V8.4C15.4 7.63 14.77 7 14 7ZM2.8 14C2.8 20.174 7.826 25.2 14 25.2C20.174 25.2 25.2 20.174 25.2 14C25.2 7.826 20.174 2.8 14 2.8C7.826 2.8 2.8 7.826 2.8 14Z" fill="#8D8D8D"/>
</svg>
