<svg width="28" height="28" viewBox="0 0 28 28" fill="none" xmlns="http://www.w3.org/2000/svg">
<g clip-path="url(#clip0)">
<path fill-rule="evenodd" clip-rule="evenodd" d="M22.9847 21.2917V14.2917C22.9847 10.3833 20.2314 7.11667 16.5681 6.32334V4.95832C16.5681 3.99 15.7864 3.20832 14.8181 3.20832C13.8497 3.20832 13.0681 3.99 13.0681 4.95832V6.32334C9.40473 7.11667 6.65141 10.3833 6.65141 14.2917V21.2917L5.14637 22.7967C4.41144 23.5317 4.92477 24.7917 5.96306 24.7917H23.6614C24.6997 24.7917 25.2247 23.5317 24.4897 22.7967L22.9847 21.2917ZM14.8181 28.2917C16.1014 28.2917 17.1397 27.2533 17.1397 25.97H12.4964C12.4964 27.2533 13.5347 28.2917 14.8181 28.2917Z" fill="#8D8D8D"/>
</g>
<defs>
<clipPath id="clip0">
<rect width="28" height="28" fill="white"/>
</clipPath>
</defs>
</svg>
