<svg width="28" height="28" viewBox="0 0 28 28" fill="none" xmlns="http://www.w3.org/2000/svg">
<g clip-path="url(#clip0)">
<path d="M21.9847 21.2916V21.7059L22.2776 21.9988L23.7826 23.5038C23.8181 23.5392 23.8273 23.5669 23.8307 23.5872C23.8352 23.613 23.8329 23.6482 23.8172 23.6859C23.8015 23.7235 23.778 23.7505 23.7558 23.7661C23.7382 23.7785 23.7115 23.7916 23.6614 23.7916H5.96306C5.91309 23.7916 5.88816 23.7787 5.87278 23.7678C5.85275 23.7535 5.83048 23.7283 5.81546 23.6915C5.80043 23.6547 5.79794 23.6193 5.80276 23.5919C5.80665 23.5698 5.81688 23.5404 5.85351 23.5037L7.35851 21.9988L7.65141 21.7059V21.2916V14.2916C7.65141 10.8639 10.0667 7.99647 13.2797 7.30067L14.0681 7.12995V6.32332V4.95831C14.0681 4.54227 14.402 4.20831 14.8181 4.20831C15.2341 4.20831 15.5681 4.54227 15.5681 4.95831V6.32332V7.12995L16.3564 7.30067C19.5694 7.99647 21.9847 10.8639 21.9847 14.2916V21.2916ZM15.6832 26.97C15.4515 27.1705 15.1492 27.2916 14.8181 27.2916C14.4869 27.2916 14.1846 27.1705 13.953 26.97H15.6832Z" stroke="#DBDADA" stroke-width="2"/>
</g>
<defs>
<clipPath id="clip0">
<rect width="28" height="28" fill="white"/>
</clipPath>
</defs>
</svg>
