<svg width="64" height="64" viewBox="0 0 64 64" fill="none" xmlns="http://www.w3.org/2000/svg">
<circle cx="32" cy="32" r="31" stroke="#DBDADA" stroke-width="2"/>
<path fill-rule="evenodd" clip-rule="evenodd" d="M41.5 22.5C41.5 27.7488 37.2488 32 32 32C26.7512 32 22.5 27.7488 22.5 22.5C22.5 17.2512 26.7512 13 32 13C37.2488 13 41.5 17.2512 41.5 22.5ZM13 46.25C13 39.9325 25.6587 36.75 32 36.75C38.3413 36.75 51 39.9325 51 46.25V48.625C51 49.9313 49.9313 51 48.625 51H15.375C14.0687 51 13 49.9313 13 48.625V46.25Z" fill="#DBDADA"/>
</svg>
