<svg width="64" height="64" viewBox="0 0 64 64" fill="none" xmlns="http://www.w3.org/2000/svg">
<circle cx="32" cy="32" r="31" stroke="#8D8D8D" stroke-width="2"/>
<path d="M41 22.5C41 27.4726 36.9726 31.5 32 31.5C27.0274 31.5 23 27.4726 23 22.5C23 17.5274 27.0274 13.5 32 13.5C36.9726 13.5 41 17.5274 41 22.5ZM13.5 46.25C13.5 44.8543 14.1952 43.5947 15.4161 42.4679C16.6404 41.3379 18.3598 40.3755 20.308 39.5951C24.2051 38.0339 28.8919 37.25 32 37.25C35.1081 37.25 39.7949 38.0339 43.692 39.5951C45.6402 40.3755 47.3596 41.3379 48.5839 42.4679C49.8048 43.5947 50.5 44.8543 50.5 46.25V48.625C50.5 49.6551 49.6551 50.5 48.625 50.5H15.375C14.3449 50.5 13.5 49.6551 13.5 48.625V46.25Z" fill="#8D8D8D" stroke="#8D8D8D"/>
</svg>
