<svg width="22" height="22" viewBox="0 0 22 22" fill="none" xmlns="http://www.w3.org/2000/svg">
<circle cx="11" cy="11" r="11" fill="#F2C94C"/>
<path d="M6.94727 10.9746L8.35352 8.66016H9.61914L7.54492 11.7949L9.68359 15H8.42969L6.96484 12.627L5.5 15H4.24023L6.37891 11.7949L4.30469 8.66016H5.55859L6.94727 10.9746ZM12.1602 10.7227L12.5938 6.46875H16.9648V7.4707H13.5137L13.2559 9.79688C13.6738 9.55078 14.1484 9.42773 14.6797 9.42773C15.457 9.42773 16.0742 9.68555 16.5312 10.2012C16.9883 10.7129 17.2168 11.4062 17.2168 12.2812C17.2168 13.1602 16.9785 13.8535 16.502 14.3613C16.0293 14.8652 15.3672 15.1172 14.5156 15.1172C13.7617 15.1172 13.1465 14.9082 12.6699 14.4902C12.1934 14.0723 11.9219 13.4941 11.8555 12.7559H12.8809C12.9473 13.2441 13.1211 13.6133 13.4023 13.8633C13.6836 14.1094 14.0547 14.2324 14.5156 14.2324C15.0195 14.2324 15.4141 14.0605 15.6992 13.7168C15.9883 13.373 16.1328 12.8984 16.1328 12.293C16.1328 11.7227 15.9766 11.2656 15.6641 10.9219C15.3555 10.5742 14.9434 10.4004 14.4277 10.4004C13.9551 10.4004 13.584 10.5039 13.3145 10.7109L13.0273 10.9453L12.1602 10.7227Z" fill="white"/>
</svg>
