<svg width="22" height="22" viewBox="0 0 22 22" fill="none" xmlns="http://www.w3.org/2000/svg">
<circle cx="11" cy="11" r="11" fill="#B55AF8"/>
<circle cx="11" cy="11" r="11" fill="url(#paint0_linear)"/>
<path d="M5.71 15.02C5.29 15.02 5.08 14.9567 5.08 14.83C5.08 14.77 5.11333 14.6867 5.18 14.58L7.24 11.35L5.41 8.42C5.34333 8.30667 5.31 8.22333 5.31 8.17C5.31 8.11 5.36333 8.06333 5.47 8.03C5.57667 7.99667 5.73667 7.98 5.95 7.98H6.36C6.68667 7.98 6.88667 8.04333 6.96 8.17L8.1 10.03L9.3 8.17C9.35333 8.09 9.42667 8.04 9.52 8.02C9.61333 7.99333 9.74333 7.98 9.91 7.98H10.3C10.72 7.98 10.93 8.04333 10.93 8.17C10.93 8.24333 10.8967 8.32667 10.83 8.42L8.94 11.37L10.94 14.58C11 14.68 11.03 14.7633 11.03 14.83C11.03 14.9567 10.82 15.02 10.4 15.02H10.01C9.68333 15.02 9.48333 14.9567 9.41 14.83L8.08 12.68L6.7 14.83C6.64667 14.91 6.57333 14.9633 6.48 14.99C6.39333 15.01 6.26333 15.02 6.09 15.02H5.71ZM13.2733 15C13.1333 15 13.0299 14.97 12.9633 14.91C12.9033 14.8433 12.8733 14.74 12.8733 14.6V8.3C12.8733 8.08667 13.0733 7.98 13.4733 7.98H13.8133C14.2133 7.98 14.4133 8.08667 14.4133 8.3V13.69H16.5733C16.6799 13.69 16.7566 13.73 16.8033 13.81C16.8499 13.89 16.8733 14.0167 16.8733 14.19V14.5C16.8733 14.6733 16.8499 14.8 16.8033 14.88C16.7566 14.96 16.6799 15 16.5733 15H13.2733Z" fill="white"/>
<defs>
<linearGradient id="paint0_linear" x1="11" y1="0" x2="11" y2="22" gradientUnits="userSpaceOnUse">
<stop stop-color="#EF95DE"/>
<stop offset="1" stop-color="white" stop-opacity="0"/>
</linearGradient>
</defs>
</svg>
