<svg width="32" height="32" viewBox="0 0 32 32" fill="none" xmlns="http://www.w3.org/2000/svg">
<g clip-path="url(#clip0)">
<path d="M23.3552 32C28.1296 32 32.0002 28.1296 32.0002 23.355C32.0002 18.5805 28.1296 14.71 23.3552 14.71C18.5807 14.71 14.7102 18.5805 14.7102 23.355C14.7102 28.1296 18.5807 32 23.3552 32Z" fill="#96CC26"/>
<path d="M7.10451 27.379C9.32694 27.379 11.1286 25.5774 11.1286 23.355C11.1286 21.1326 9.32694 19.3309 7.10451 19.3309C4.88208 19.3309 3.08044 21.1326 3.08044 23.355C3.08044 25.5774 4.88208 27.379 7.10451 27.379Z" fill="#9F68F3"/>
<path d="M23.355 12.6691C26.4281 12.6691 28.9193 10.1779 28.9193 7.10472C28.9193 4.0316 26.4281 1.54033 23.355 1.54033C20.2819 1.54033 17.7905 4.0316 17.7905 7.10472C17.7905 10.1779 20.2819 12.6691 23.355 12.6691Z" fill="#FD6260"/>
<path d="M7.10469 14.2094C11.0285 14.2094 14.2094 11.0285 14.2094 7.1047C14.2094 3.18088 11.0285 0 7.10469 0C3.18088 0 0 3.18088 0 7.1047C0 11.0285 3.18088 14.2094 7.10469 14.2094Z" fill="#00A9FD"/>
</g>
<defs>
<clipPath id="clip0">
<rect width="32" height="32" fill="white"/>
</clipPath>
</defs>
</svg>
