<svg width="22" height="22" viewBox="0 0 22 22" fill="none" xmlns="http://www.w3.org/2000/svg">
<circle cx="11" cy="11" r="11" fill="white"/>
<path d="M6.94727 10.9746L8.35352 8.66016H9.61914L7.54492 11.7949L9.68359 15H8.42969L6.96484 12.627L5.5 15H4.24023L6.37891 11.7949L4.30469 8.66016H5.55859L6.94727 10.9746ZM17.252 15H11.6621V14.2207L14.6152 10.9395C15.0527 10.4434 15.3535 10.041 15.5176 9.73242C15.6855 9.41992 15.7695 9.09766 15.7695 8.76562C15.7695 8.32031 15.6348 7.95508 15.3652 7.66992C15.0957 7.38477 14.7363 7.24219 14.2871 7.24219C13.748 7.24219 13.3281 7.39648 13.0273 7.70508C12.7305 8.00977 12.582 8.43555 12.582 8.98242H11.498C11.498 8.19727 11.75 7.5625 12.2539 7.07812C12.7617 6.59375 13.4395 6.35156 14.2871 6.35156C15.0801 6.35156 15.707 6.56055 16.168 6.97852C16.6289 7.39258 16.8594 7.94531 16.8594 8.63672C16.8594 9.47656 16.3242 10.4766 15.2539 11.6367L12.9688 14.1152H17.252V15Z" fill="#3E8CE0"/>
</svg>
