<svg width="22" height="22" viewBox="0 0 22 22" fill="none" xmlns="http://www.w3.org/2000/svg">
<circle cx="11" cy="11" r="11" fill="white"/>
<path d="M2.94727 10.9746L4.35352 8.66016H5.61914L3.54492 11.7949L5.68359 15H4.42969L2.96484 12.627L1.5 15H0.240234L2.37891 11.7949L0.304688 8.66016H1.55859L2.94727 10.9746ZM11.2246 15H10.1348V7.77539L7.94922 8.57812V7.59375L11.0547 6.42773H11.2246V15ZM20.75 11.3613C20.75 12.6309 20.5332 13.5742 20.0996 14.1914C19.666 14.8086 18.9883 15.1172 18.0664 15.1172C17.1562 15.1172 16.4824 14.8164 16.0449 14.2148C15.6074 13.6094 15.3809 12.707 15.3652 11.5078V10.0605C15.3652 8.80664 15.582 7.875 16.0156 7.26562C16.4492 6.65625 17.1289 6.35156 18.0547 6.35156C18.9727 6.35156 19.6484 6.64648 20.082 7.23633C20.5156 7.82227 20.7383 8.72852 20.75 9.95508V11.3613ZM19.666 9.87891C19.666 8.96094 19.5371 8.29297 19.2793 7.875C19.0215 7.45312 18.6133 7.24219 18.0547 7.24219C17.5 7.24219 17.0957 7.45117 16.8418 7.86914C16.5879 8.28711 16.457 8.92969 16.4492 9.79688V11.5312C16.4492 12.4531 16.582 13.1348 16.8477 13.5762C17.1172 14.0137 17.5234 14.2324 18.0664 14.2324C18.6016 14.2324 18.998 14.0254 19.2559 13.6113C19.5176 13.1973 19.6543 12.5449 19.666 11.6543V9.87891Z" fill="#3E8CE0"/>
</svg>
