<svg width="22" height="22" viewBox="0 0 22 22" fill="none" xmlns="http://www.w3.org/2000/svg">
<circle cx="11" cy="11" r="11" fill="white"/>
<g clip-path="url(#clip0)">
<path d="M5.82235 14.9289L4.12241 16.6056C3.86228 16.8621 4.04418 17.3072 4.41023 17.3072H7.06074C7.16943 17.3072 7.27368 17.2641 7.35054 17.1872L7.71558 16.8222L5.82235 14.9289Z" fill="#3E8CE0"/>
<path d="M6.9179 11.6525C6.46034 12.1344 6.27653 12.8274 6.43813 13.4739C6.508 13.7533 6.47466 14.0465 6.35364 14.301L8.34557 16.2929C8.60001 16.1718 8.89318 16.1385 9.17263 16.2084C9.81974 16.3702 10.5119 16.1857 10.9936 15.7283L6.9179 11.6525Z" fill="#3E8CE0"/>
<path d="M17.5945 6.4641L16.4137 5.18492C15.8473 4.57126 14.8964 4.52623 14.2743 5.07923L7.51355 11.0888L11.5616 15.1369L17.5995 8.53303C18.1351 7.94719 18.1337 7.04825 17.5945 6.4641V6.4641Z" fill="#3E8CE0"/>
<path d="M14.5059 6.74707L11.6785 9.48365C11.5159 9.64108 11.5117 9.90057 11.6691 10.0632C11.8265 10.2259 12.086 10.2301 12.2487 10.0727L15.076 7.33609C15.2386 7.17867 15.2429 6.91917 15.0854 6.75652C14.928 6.59388 14.6685 6.58965 14.5059 6.74707Z" fill="white"/>
</g>
<defs>
<clipPath id="clip0">
<rect width="14" height="14" fill="white" transform="translate(4 4)"/>
</clipPath>
</defs>
</svg>
