<svg width="100" height="100" viewBox="0 0 100 100" fill="none" xmlns="http://www.w3.org/2000/svg">
<path d="M73.2002 64.6554V64.65C73.2002 58.1765 70.4128 53.7973 66.3389 50.7257C62.2927 47.6751 56.9853 45.9183 51.9252 44.6157C46.888 43.319 43.6292 42.0005 41.6353 40.5232C39.6793 39.0741 38.9497 37.4818 38.9497 35.5499C38.9497 33.3261 39.9843 31.4233 41.9251 30.059C43.8793 28.6853 46.7691 27.85 50.4504 27.85C53.5399 27.85 55.8 28.4512 57.414 29.4725C59.0169 30.4868 60.0245 31.9417 60.5696 33.7396C61.1226 35.7214 62.7961 37.2 64.8999 37.2H66.2C69.4815 37.2 71.8426 33.9704 70.7209 30.8812C68.7982 25.518 64.4389 21.1636 57.5996 19.3615V16.6499C57.5996 12.7239 54.3767 9.5 50.4504 9.5H50.4004C46.4743 9.5 43.25 12.7237 43.25 16.6499V19.249C34.7101 21.2106 27.6995 26.901 27.6995 35.7001C27.6995 40.9902 29.9045 44.967 33.6881 47.9847C37.4481 50.9835 42.7571 53.0298 48.9828 54.536L48.9847 54.5364C54.5267 55.8536 57.7641 57.4649 59.6141 59.202C61.4361 60.9128 61.95 62.7813 61.95 64.7501C61.95 66.1589 61.4425 68.0023 59.7897 69.4981C58.1352 70.9954 55.271 72.2 50.4504 72.2C43.2704 72.2 39.7153 69.6572 38.3668 66.1696L38.3646 66.1643C37.6069 64.2698 35.9494 62.8501 33.8501 62.8501H32.6501C29.3181 62.8501 26.8928 66.2398 28.1877 69.3406C30.7209 75.5696 36.6108 79.2712 43.2 80.7529V83.3501C43.2 87.2763 46.4242 90.5 50.3503 90.5H50.4004C54.3266 90.5 57.5496 87.2761 57.5496 83.3501V80.8614C61.7985 79.9993 65.6273 78.329 68.4393 75.7296C71.3526 73.0366 73.1487 69.3685 73.2002 64.6554ZM0.5 50C0.5 22.6761 22.6761 0.5 50 0.5C77.3239 0.5 99.5 22.6761 99.5 50C99.5 77.3239 77.3239 99.5 50 99.5C22.6761 99.5 0.5 77.3239 0.5 50Z" fill="#8B3E2F" stroke="#F2C94C"/>
</svg>
