<svg width="28" height="28" viewBox="0 0 28 28" fill="none" xmlns="http://www.w3.org/2000/svg">
<path fill-rule="evenodd" clip-rule="evenodd" d="M24.8889 2.8H23.3333V1.4C23.3333 0.63 22.6333 0 21.7778 0C20.9222 0 20.2222 0.63 20.2222 1.4V2.8H7.77778V1.4C7.77778 0.63 7.07778 0 6.22222 0C5.36667 0 4.66667 0.63 4.66667 1.4V2.8H3.11111C1.38444 2.8 0.0155707 4.06 0.0155707 5.6L0 25.2C0 26.74 1.38444 28 3.11111 28H24.8889C26.6 28 28 26.74 28 25.2V5.6C28 4.06 26.6 2.8 24.8889 2.8ZM24.8889 23.8C24.8889 24.57 24.1889 25.2 23.3333 25.2H4.66667C3.81111 25.2 3.11111 24.57 3.11111 23.8V9.8H24.8889V23.8Z" fill="#8D8D8D"/>
</svg>
