<svg width="30" height="42" viewBox="0 0 30 42" fill="none" xmlns="http://www.w3.org/2000/svg">
<path d="M20.5141 0.541967C21.636 0.122341 22.8483 -0.140084 24.0466 0.0792374C24.2427 0.175587 24.4592 0.211084 24.6719 0.256723C26.7043 0.727059 28.4591 2.20272 29.2971 4.10181C30.1719 6.04401 30.0484 8.38808 28.9774 10.2301C26.9908 13.6848 25.0361 17.1597 23.0291 20.6016C21.0642 17.0874 19.0343 13.6087 17.0516 10.1046C16.2824 8.7139 16.0328 7.05187 16.3537 5.49761C16.7867 3.28792 18.4116 1.3622 20.5141 0.541967V0.541967ZM22.1937 4.0042C21.2157 4.28311 20.4084 5.08052 20.1282 6.05415C19.8073 7.06709 20.0989 8.23088 20.8337 8.99534C21.5659 9.78388 22.7375 10.1338 23.7817 9.86122C25.3201 9.51005 26.3974 7.84168 26.0319 6.3039C25.7301 4.6254 23.8301 3.46921 22.1937 4.0042ZM0 36.5943C4.99325 31.6095 10.0081 26.645 14.9962 21.6551C16.8249 23.4743 18.6395 25.3075 20.4873 27.1077C20.4211 25.4951 20.4644 23.8788 20.4619 22.2649L20.5001 22.2104C22.2078 22.185 23.918 22.2256 25.627 22.1914C25.6461 25.542 25.6333 28.894 25.6308 32.2446C27.0863 33.6962 28.5457 35.144 30 36.5968C28.1726 38.3844 26.3694 40.1973 24.5585 42C21.3877 38.8053 18.176 35.6498 14.9949 32.4652C11.8291 35.66 8.60985 38.8015 5.44533 41.9962C3.65358 40.1732 1.82103 38.3894 0 36.5943" fill="#0468FF"/>
</svg>
