<svg width="22" height="22" viewBox="0 0 22 22" fill="none" xmlns="http://www.w3.org/2000/svg">
<g clip-path="url(#clip0)">
<path d="M21.5489 0.00274001C17.2544 -0.07426 12.7251 3.85092 9.62494 7.33333C6.66227 7.38925 3.40903 6.92357 1.28511 9.04749C1.16136 9.16941 1.11736 9.35182 1.17145 9.51682C1.22645 9.68274 1.36945 9.80282 1.54178 9.82757L5.07461 10.3336L4.63828 10.8222C4.47603 11.0037 4.48428 11.2796 4.65661 11.4519L10.548 17.3433C10.6369 17.4322 10.7543 17.4772 10.8725 17.4772C10.9816 17.4772 11.0907 17.4387 11.1778 17.3607L11.6664 16.9244L12.1724 20.4572C12.1971 20.6296 12.3328 20.7561 12.4969 20.8111C12.539 20.8248 12.583 20.8312 12.6279 20.8312C12.7581 20.8312 12.891 20.7744 12.9827 20.6837C15.0773 18.5891 15.069 15.3377 15.1249 12.375C18.611 9.26842 22.0971 4.73916 21.9972 0.450073C21.9908 0.20624 21.7937 0.00915668 21.5489 0.00274001ZM17.3249 7.91541C16.8785 8.36182 16.2919 8.58549 15.7043 8.58549C15.1167 8.58549 14.53 8.36182 14.0836 7.91541C13.1908 7.02166 13.1908 5.56782 14.0836 4.67407C14.9774 3.78032 16.4312 3.78032 17.3249 4.67407C18.2187 5.56782 18.2187 7.02257 17.3249 7.91541Z" fill="white"/>
<path d="M2.49705 15.4963C1.51622 16.4771 0.169636 20.9083 0.0193026 21.4097C-0.0292807 21.571 0.015636 21.7461 0.133886 21.8653C0.221886 21.9533 0.338303 22 0.458386 22C0.502386 22 0.546386 21.9936 0.590386 21.9808C1.0918 21.8304 5.52297 20.4838 6.5038 19.503C7.60839 18.3984 7.60839 16.6008 6.5038 15.4963C5.3983 14.3917 3.60164 14.3926 2.49705 15.4963V15.4963Z" fill="white"/>
</g>
<defs>
<clipPath id="clip0">
<rect width="22" height="22" fill="white"/>
</clipPath>
</defs>
</svg>
