<svg width="22" height="22" viewBox="0 0 22 22" fill="none" xmlns="http://www.w3.org/2000/svg">
<path fill-rule="evenodd" clip-rule="evenodd" d="M9.85017 2.90174L7.47415 5.25163C6.81928 5.8993 6.81928 6.95387 7.47415 7.60154L9.85818 9.94311L14.6021 5.25163L12.2253 2.91003C11.5713 2.25405 10.505 2.25407 9.85017 2.90174ZM14.6021 5.25163L16.9782 7.60154L6.29034 18.1719C5.63547 18.8196 4.56837 18.8196 3.9135 18.1719C3.25947 17.5242 3.25947 16.4697 3.9135 15.822L14.6021 5.25163ZM12.2346 12.293L16.9782 7.60154L19.3458 9.94311C19.9998 10.5908 19.9998 11.6453 19.3458 12.293L16.9698 14.6429C16.3149 15.2906 15.2486 15.2906 14.5938 14.6429L12.2346 12.293Z" fill="#FF7E00"/>
<rect width="10.1586" height="2.2574" transform="matrix(0.71525 -0.698868 0.714353 0.699785 4.54761 7.09951)" fill="#FF7E00"/>
<rect width="10.1586" height="3.3861" transform="matrix(0.71525 -0.698868 0.714353 0.699785 0 19.5632)" fill="#FF7E00"/>
<rect width="12.2761" height="1.63014" transform="matrix(0.999972 -0.00750657 0.00784244 0.999969 9.69849 20.3699)" fill="#FF7E00"/>
<rect width="10.1586" height="2.2574" transform="matrix(0.71525 -0.698868 0.714353 0.699785 13.1215 15.6562)" fill="#FF7E00"/>
</svg>
