<svg width="22" height="22" viewBox="0 0 22 22" fill="none" xmlns="http://www.w3.org/2000/svg">
<path d="M21.4292 8.20638L21.4292 8.20641L15.8952 13.7404L8.2596 6.10472L13.7936 0.570806C13.7936 0.570796 13.7936 0.570787 13.7936 0.570777C13.888 0.476381 14.0411 0.476434 14.1355 0.570776L14.1355 0.570799L14.8934 1.32861C14.8934 1.32863 14.8934 1.32865 14.8935 1.32867C14.9645 1.39982 14.9842 1.50737 14.9429 1.59893L14.9429 1.59897L14.7429 2.04254L14.1789 3.29397L15.4157 2.6985L15.8332 2.49748L15.8333 2.49741C15.9257 2.4529 16.0363 2.4716 16.109 2.54433L18.5237 4.95899L18.5237 4.95906C18.6054 5.04063 18.6179 5.16867 18.5535 5.26461C18.5535 5.26461 18.5535 5.26462 18.5535 5.26462L16.9724 7.62101L17.6686 8.31314L20.0091 6.72235C20.1051 6.65716 20.234 6.66933 20.316 6.75136L21.4292 7.86453C21.5236 7.95897 21.5236 8.11204 21.4292 8.20638Z" stroke="white"/>
<path d="M6.45623 7.20103L4.75188 8.90538C4.61278 9.04448 4.5346 9.23313 4.5346 9.42984C4.5346 9.62656 4.61273 9.81526 4.75188 9.95431L6.3686 11.571C6.68009 11.8825 6.83116 12.3124 6.7831 12.7504C6.73508 13.1881 6.49416 13.5751 6.12215 13.8122C1.37156 16.8404 0.928737 17.2833 0.783254 17.4289C-0.261085 18.4731 -0.261085 20.1723 0.783254 21.2167C1.82863 22.2621 3.52794 22.26 4.57114 21.2167C4.71672 21.0712 5.1597 20.6282 8.18773 15.8778C8.4243 15.5067 8.81115 15.2663 9.24903 15.2182C9.6883 15.1703 10.1181 15.3206 10.4289 15.6313L12.0456 17.2481C12.3352 17.5377 12.8049 17.5377 13.0946 17.2481L14.799 15.5437L6.45623 7.20103ZM3.464 20.0187C3.05455 20.4281 2.39073 20.4281 1.98133 20.0187C1.57189 19.6092 1.57189 18.9454 1.98133 18.536C2.39078 18.1265 3.0546 18.1265 3.464 18.536C3.87345 18.9454 3.87345 19.6092 3.464 20.0187Z" fill="white"/>
</svg>
