<svg width="60" height="40" viewBox="0 0 60 40" fill="none" xmlns="http://www.w3.org/2000/svg">
<path d="M44.6364 32.8571C44.6364 29.138 43.0809 26.1775 40.7508 23.8579C40.8041 23.8574 40.8569 23.8571 40.9091 23.8571C43.9552 23.8571 48.5963 24.667 52.4509 26.283C54.3763 27.0902 56.0442 28.0734 57.2158 29.2053C58.3791 30.3292 59 31.5428 59 32.8571V37.1429C59 38.2064 58.1771 39 57.2727 39H44.4482C44.5676 38.4032 44.6364 37.7803 44.6364 37.1429V32.8571ZM26.2454 8.57143C26.2454 12.8108 23.0183 16.1429 19.0909 16.1429C15.1593 16.1429 11.9091 12.8063 11.9091 8.57143C11.9091 4.33651 15.1593 1 19.0909 1C23.0183 1 26.2454 4.33205 26.2454 8.57143ZM48.0636 8.57143C48.0636 12.8108 44.8365 16.1429 40.9091 16.1429C36.9774 16.1429 33.7273 12.8063 33.7273 8.57143C33.7273 4.33651 36.9774 1 40.9091 1C44.8365 1 48.0636 4.33205 48.0636 8.57143ZM1 32.8571C1 31.5428 1.62091 30.3292 2.78418 29.2053C3.95579 28.0734 5.62366 27.0902 7.54913 26.283C11.4037 24.667 16.0448 23.8571 19.0909 23.8571C22.137 23.8571 26.7782 24.667 30.6327 26.283C32.5582 27.0902 34.226 28.0734 35.3976 29.2053C36.5609 30.3292 37.1818 31.5428 37.1818 32.8571V37.1429C37.1818 38.2063 36.3589 39 35.4545 39H2.72727C1.82289 39 1 38.2064 1 37.1429V32.8571Z" stroke="#C4C4C4" stroke-width="2"/>
</svg>
