<svg width="200" height="134" viewBox="0 0 200 134" fill="none" xmlns="http://www.w3.org/2000/svg">
<path d="M146.455 109.524C146.455 95.8362 139.763 85.3657 130.052 77.4627C132.315 77.2935 134.442 77.1905 136.364 77.1905C146.823 77.1905 162.601 79.9504 175.738 85.4579C182.305 88.211 188.151 91.6255 192.341 95.673C196.522 99.7126 199 104.326 199 109.524V123.81C199 128.54 195.313 132.333 190.909 132.333H145.184C145.97 129.657 146.455 126.774 146.455 123.81V109.524ZM89.8181 28.5714C89.8181 43.8775 78.1274 56.1429 63.6364 56.1429C49.1411 56.1429 37.3636 43.873 37.3636 28.5714C37.3636 13.2698 49.1411 1 63.6364 1C78.1274 1 89.8181 13.2654 89.8181 28.5714ZM162.545 28.5714C162.545 43.8775 150.855 56.1429 136.364 56.1429C121.868 56.1429 110.091 43.873 110.091 28.5714C110.091 13.2698 121.868 1 136.364 1C150.855 1 162.545 13.2654 162.545 28.5714ZM1 109.524C1 104.326 3.47829 99.7126 7.65932 95.673C11.8487 91.6255 17.6947 88.211 24.2616 85.4579C37.3991 79.9504 53.1767 77.1905 63.6364 77.1905C74.0961 77.1905 89.8736 79.9504 103.011 85.4579C109.578 88.211 115.424 91.6255 119.613 95.673C123.794 99.7126 126.273 104.326 126.273 109.524V123.81C126.273 128.54 122.586 132.333 118.182 132.333H9.09091C4.68652 132.333 1 128.54 1 123.81V109.524Z" stroke="white" stroke-width="2"/>
</svg>
