<svg width="32" height="32" viewBox="0 0 32 32" fill="none" xmlns="http://www.w3.org/2000/svg">
<path fill-rule="evenodd" clip-rule="evenodd" d="M16 0C24.835 0 32 7.16502 32 16C32 24.8352 24.835 32 16 32C7.16478 32 0 24.8352 0 16C0 7.16502 7.16478 0 16 0Z" fill="#0B265B"/>
<path fill-rule="evenodd" clip-rule="evenodd" d="M22.6394 11.1269H25.7975C26.0686 11.1269 26.2904 11.3485 26.2904 11.6198V23.2777C26.2904 23.5485 26.0688 23.7706 25.7975 23.7706H23.7666H22.6391H5.81951V22.4817C5.81951 22.2451 6.01277 22.0521 6.24912 22.0521H21.5993H22.1465H23.7666H24.2042H24.5621V13.0046H23.7666V17.2879V17.7138C23.7666 18.1396 23.661 18.294 23.3009 18.3013C22.9413 18.3085 22.5288 17.8487 22.5288 17.8487L22.1465 17.4268L21.9406 17.2003L15.1359 9.70194L8.25852 18.0141C7.77527 18.4388 5.69512 18.317 5.81717 18.026C8.93106 14.3349 11.8707 10.6317 14.9848 6.9406C15.048 6.85932 15.1469 6.80731 15.2579 6.80731C15.3615 6.80731 15.4547 6.85299 15.5182 6.92537L22.1468 14.2352V11.6195C22.1468 11.3487 22.3684 11.1269 22.6394 11.1269Z" fill="white"/>
<path d="M21.5908 8.89872C21.2751 8.60825 21.2547 8.11725 21.5451 7.80172C21.8356 7.48618 22.3268 7.4658 22.6424 7.75627L23.6862 8.71483L25.3833 6.09638C25.6166 5.73727 26.0969 5.63514 26.456 5.86845C26.8151 6.10177 26.9172 6.58198 26.6839 6.94109L24.5098 10.2953C24.4819 10.344 24.448 10.3902 24.4084 10.4333C24.1181 10.7488 23.6269 10.7692 23.3112 10.4787L21.5908 8.89872Z" fill="white"/>
</svg>
