<svg width="60" height="48" viewBox="0 0 60 48" fill="none" xmlns="http://www.w3.org/2000/svg">
<path d="M29.2929 6.70712L29.5858 7H30H54C56.7477 7 59 9.25229 59 12V42C59 44.7477 56.7477 47 54 47H6C3.25241 47 1.00021 44.7479 1 42.0004C1 42.0003 1 42.0001 1 42L1.03003 6.00083V6C1.03003 3.24574 3.2588 1 6 1H21.5101C22.8345 1 24.11 1.52441 25.0628 2.47719L25.0628 2.4772L29.2929 6.70712ZM5 39C5 41.2023 6.79772 43 9 43H51C53.2023 43 55 41.2023 55 39V15C55 12.7977 53.2023 11 51 11H9C6.79772 11 5 12.7977 5 15V39Z" stroke="#3E8CE0" stroke-width="2"/>
</svg>
