<svg width="22" height="22" viewBox="0 0 22 22" fill="none" xmlns="http://www.w3.org/2000/svg">
<path d="M4.4635 12.6923C4.4635 17.8245 8.39698 22 13.2318 22C18.0666 22 22 17.8245 22 12.6923C22 8.00969 18.7256 4.12438 14.4798 3.47928C14.2251 3.44058 14.0289 3.22677 14.0289 2.96916V2.19231C14.0289 1.91617 14.2527 1.69231 14.5289 1.69231H15.1231C15.3993 1.69231 15.6231 1.46845 15.6231 1.19231V0.5C15.6231 0.223858 15.3993 0 15.1231 0H11.3404C11.0643 0 10.8404 0.223858 10.8404 0.5V1.19231C10.8404 1.46845 11.0643 1.69231 11.3404 1.69231H11.9347C12.2108 1.69231 12.4347 1.91617 12.4347 2.19231V2.96916C12.4347 3.22677 12.2385 3.44058 11.9838 3.47928C7.73799 4.12438 4.4635 8.00969 4.4635 12.6923ZM20.4058 12.6923C20.4058 16.8913 17.1875 20.3077 13.2318 20.3077C9.27609 20.3077 6.05773 16.8913 6.05773 12.6923C6.05773 8.49327 9.27609 5.07692 13.2318 5.07692C17.1875 5.07692 20.4058 8.49327 20.4058 12.6923Z" fill="#417FE0"/>
<path d="M12.4615 6.76923C12.0599 6.76923 11.7344 7.09475 11.7344 7.49631V12.5385C11.7344 13.0907 12.1821 13.5385 12.7344 13.5385H16.7049C17.1722 13.5385 17.551 13.1596 17.551 12.6923V12.6923C17.551 12.225 17.1722 11.8461 16.7049 11.8461H14.1885C13.6363 11.8461 13.1885 11.3984 13.1885 10.8461V7.49631C13.1885 7.09475 12.863 6.76923 12.4615 6.76923V6.76923Z" fill="#417FE0"/>
<path d="M0 10.4795C0 10.2033 0.223858 9.97949 0.5 9.97949H4.01233C4.28847 9.97949 4.51233 10.2033 4.51233 10.4795V10.7923C4.51233 11.0685 4.28847 11.2923 4.01233 11.2923H0.5C0.223857 11.2923 0 11.0685 0 10.7923V10.4795Z" fill="#417FE0"/>
<path d="M1.4541 6.24872C1.4541 5.97258 1.67796 5.74872 1.9541 5.74872H5.46643C5.74257 5.74872 5.96643 5.97258 5.96643 6.24872V6.56154C5.96643 6.83768 5.74257 7.06154 5.46643 7.06154H1.9541C1.67796 7.06154 1.4541 6.83768 1.4541 6.56154V6.24872Z" fill="#417FE0"/>
<path d="M0 14.418C0 14.1418 0.223858 13.918 0.5 13.918H4.01233C4.28847 13.918 4.51233 14.1418 4.51233 14.418V14.7308C4.51233 15.0069 4.28847 15.2308 4.01233 15.2308H0.5C0.223857 15.2308 0 15.0069 0 14.7308V14.418Z" fill="#417FE0"/>
<path d="M1.12805 18.3564C1.12805 18.0803 1.35191 17.8564 1.62805 17.8564H5.14038C5.41652 17.8564 5.64038 18.0803 5.64038 18.3564V18.6692C5.64038 18.9454 5.41652 19.1692 5.14038 19.1692H1.62805C1.35191 19.1692 1.12805 18.9454 1.12805 18.6692V18.3564Z" fill="#417FE0"/>
</svg>
