<svg width="22" height="22" viewBox="0 0 22 22" fill="none" xmlns="http://www.w3.org/2000/svg">
<path d="M21.9041 8.47143C21.8398 8.40057 21.7465 8.34162 21.6337 8.30061C21.521 8.2596 21.3929 8.23799 21.2624 8.23799H11.5997L13.2197 0.511417C13.2371 0.408009 13.1982 0.303958 13.1093 0.216018C13.0205 0.128077 12.8868 0.0613639 12.7298 0.0266196C12.5728 -0.00812459 12.4016 -0.00887808 12.2439 0.0244805C12.0861 0.0578391 11.9509 0.123369 11.8601 0.210518L0.10926 13.0617C0.0405447 13.1315 0.00288346 13.2114 0.000159083 13.2933C-0.0025653 13.3752 0.0297458 13.456 0.0937613 13.5275C0.157777 13.599 0.25118 13.6585 0.364339 13.7C0.477499 13.7414 0.606319 13.7633 0.737518 13.7633H10.2558L8.97199 21.5015C8.95937 21.6046 9.00233 21.7073 9.09403 21.7933C9.18572 21.8794 9.32088 21.9438 9.47801 21.9764C9.63514 22.009 9.8052 22.0078 9.96115 21.9731C10.1171 21.9384 10.25 21.8721 10.3386 21.7848L21.8953 8.93499C21.9623 8.86511 21.9984 8.78539 21.9999 8.70396C22.0015 8.62252 21.9684 8.54229 21.9041 8.47143Z" fill="#EBA845"/>
</svg>
