<svg width="22" height="22" viewBox="0 0 22 22" fill="none" xmlns="http://www.w3.org/2000/svg">
<path d="M18.9292 21.3292C18.9292 21.6996 18.6288 21.9999 18.2584 21.9999H3.68125C3.31083 21.9999 3.01052 21.6996 3.01052 21.3292V19.8983C3.01052 19.5279 3.31083 19.2276 3.68125 19.2276H18.2584C18.6288 19.2276 18.9292 19.5279 18.9292 19.8983V21.3292ZM21.6193 0.0661786C21.3472 -0.0642111 21.0216 0.00268291 20.8235 0.229836L15.5031 6.32891L11.561 0.303527C11.437 0.114203 11.2259 0 10.9996 0C10.7734 0 10.5622 0.114113 10.4384 0.303527L6.49473 6.33123L1.17451 0.269365C0.975707 0.0430161 0.650448 -0.0232519 0.378848 0.107674C0.107516 0.23869 -0.0432642 0.534526 0.0103941 0.831078L2.9616 17.1558C3.01928 17.4751 3.29714 17.7072 3.6216 17.7072H18.3776C18.7022 17.7072 18.9801 17.4749 19.0377 17.1555L21.9889 0.789761C22.0425 0.492941 21.8912 0.196747 21.6193 0.0661786Z" fill="white"/>
</svg>
