<svg width="32" height="33" viewBox="0 0 32 33" fill="none" xmlns="http://www.w3.org/2000/svg">
<path d="M17.7778 33H3.40149C1.51705 33 0 31.434 0 29.4975V11.7774C0 10.3669 0.711125 9.06393 1.88446 8.33476L14.3052 0.493088C15.36 -0.164363 16.6993 -0.164363 17.7541 0.493088L30.1274 8.53788C31.2889 9.26705 32 10.57 32 11.9686V17.6786L17.7778 33ZM7.11111 25.9286H19.0696L24.8889 18.8571V13.5536L16 7.66071L7.11111 13.5536V25.9286Z" fill="url(#paint0_linear)"/>
<path d="M17.7778 33H3.40149C1.51705 33 0 31.434 0 29.4975V11.7774C0 10.3669 0.711125 9.06393 1.88446 8.33476L14.3052 0.493088C15.36 -0.164363 16.6993 -0.164363 17.7541 0.493088L30.1274 8.53788C31.2889 9.26705 32 10.57 32 11.9686V17.6786L17.7778 33ZM7.11111 25.9286H19.0696L24.8889 18.8571V13.5536L16 7.66071L7.11111 13.5536V25.9286Z" fill="url(#paint1_linear)"/>
<path d="M17.7778 33V21.2143C17.7778 19.2147 19.3304 17.6786 21.2504 17.6786H32.0001L17.7778 33Z" fill="#FBBC33"/>
<defs>
<linearGradient id="paint0_linear" x1="0.713735" y1="6.48116" x2="23.0808" y2="27.7475" gradientUnits="userSpaceOnUse">
<stop stop-color="#6BBD3F"/>
<stop offset="0.619792" stop-color="#209A73"/>
<stop offset="1" stop-color="#0276A2"/>
</linearGradient>
<linearGradient id="paint1_linear" x1="0.713734" y1="6.48116" x2="25.2532" y2="28.8934" gradientUnits="userSpaceOnUse">
<stop stop-color="#6BBD3F"/>
<stop offset="0.619792" stop-color="#209A73"/>
<stop offset="1" stop-color="#0276A2"/>
</linearGradient>
</defs>
</svg>
