<svg width="50" height="50" viewBox="0 0 50 50" fill="none" xmlns="http://www.w3.org/2000/svg">
<path d="M29.986 0H45.036L32.5246 15.9678H17.4746L29.986 0Z" fill="#0B265B"/>
<path d="M29.986 0H36.3465L23.8351 15.9678H17.4746L29.986 0Z" fill="#3E8CE0"/>
<path d="M34.8513 0H40.1722L27.6607 15.9678H22.3398L34.8513 0Z" fill="white"/>
<path d="M40.9121 33.3244C40.9121 41.8848 33.9725 48.8244 25.4121 48.8244C16.8517 48.8244 9.91211 41.8848 9.91211 33.3244C9.91211 24.764 16.8517 17.8244 25.4121 17.8244C33.9725 17.8244 40.9121 24.764 40.9121 33.3244Z" fill="#F2C94C" stroke="#CD7F32"/>
<path d="M20.0139 0H4.96387L17.4753 15.9678H32.5253L20.0139 0Z" fill="#3E8CE0"/>
<path d="M20.0139 0H13.6533L26.1648 15.9678H32.5253L20.0139 0Z" fill="#0B265B"/>
<path d="M15.149 0H9.82812L22.3396 15.9678H27.6604L15.149 0Z" fill="white"/>
</svg>
