<svg width="32" height="32" viewBox="0 0 32 32" fill="none" xmlns="http://www.w3.org/2000/svg">
<path fill-rule="evenodd" clip-rule="evenodd" d="M12.1835 0.037672C12.6723 -0.10096 13.1485 0.172789 13.534 0.376117C14.5638 1.0015 15.4759 1.74572 16.2206 2.57663C16.5109 2.91639 16.8482 3.28167 16.7926 3.70989C16.7317 4.34363 16.7983 5.00292 16.4965 5.60674C15.1208 8.37235 13.7675 11.1446 12.3246 13.8904C11.9833 14.5963 11.5387 15.2727 11.2444 15.9927C12.0332 15.2608 12.7566 14.4898 13.526 13.7478C17.656 9.74194 22.1721 5.98259 26.8672 2.36671C27.2447 2.089 27.5671 1.76508 27.9905 1.52742C28.5211 1.40816 29.1597 1.51378 29.54 1.83286C30.2663 2.37814 30.7551 3.07702 31.2169 3.76182C31.5072 4.2675 31.8761 4.76394 32 5.31363C31.8663 5.87696 31.3959 6.35095 31.0264 6.83771C29.1052 8.91763 27.796 11.2788 26.5494 13.6294C23.7308 19.1817 21.6586 24.9893 20.8686 30.9267C20.7855 31.3395 20.3386 31.6401 19.8762 31.8201C19.4333 31.9746 18.8739 32.1044 18.4322 31.8778C17.5395 31.4817 16.7467 30.9694 15.9389 30.4805C15.4639 30.1715 14.9487 29.8639 14.6825 29.4194C14.223 28.7152 14.1897 27.9072 14.2046 27.1352C14.2838 24.9765 15.0933 22.8825 15.951 20.8409C16.212 20.1851 16.5895 19.5593 16.8327 18.9C16.5396 19.0404 16.259 19.1984 16.0118 19.3837C14.4628 20.5619 13.1978 21.9328 11.9689 23.3077C10.4183 25.0351 8.98288 26.8223 7.36794 28.5145C6.70131 29.1962 6.02148 29.8907 5.12709 30.4061C4.58438 30.734 3.83743 30.616 3.26661 30.3995C2.23396 29.9959 1.35219 29.3912 0.616145 28.7082C0.327577 28.4049 -0.0711392 28.0863 0.0108989 27.6774C0.0831841 27.0992 0.267915 26.5319 0.43027 25.9654C1.68551 21.8417 3.36815 17.8042 5.09095 13.7834C6.74032 10.0166 8.48147 6.27173 10.3334 2.56034C10.8158 1.67485 11.113 0.634011 12.1835 0.037672Z" fill="#E31E25"/>
</svg>
