<svg width="22" height="22" viewBox="0 0 22 22" fill="none" xmlns="http://www.w3.org/2000/svg">
<path d="M0.550154 18.4997H4.40024V21.5001C4.40024 21.6461 4.45161 21.7656 4.55498 21.859C4.65807 21.953 4.78986 22 4.95039 22H7.82057C7.96953 22 8.09842 21.953 8.20729 21.859C8.31617 21.7656 8.37044 21.646 8.37044 21.5001V18.4997H17.0501C17.2103 18.4997 17.3422 18.4533 17.4455 18.3593C17.5489 18.2653 17.6002 18.1457 17.6002 17.9998V15.9997C17.6002 15.8546 17.5489 15.7342 17.4455 15.6408C17.3425 15.5468 17.2103 15.4998 17.0501 15.4998H8.37015V13.6559H14.2139C16.5055 13.6559 18.3758 13.0211 19.8257 11.7498C21.275 10.4797 22 8.83917 22 6.82796C22 4.81809 21.275 3.17748 19.8257 1.90615C18.3761 0.636073 16.5054 0 14.2139 0H4.95011C4.78952 0 4.65802 0.0469648 4.5547 0.14042C4.45161 0.234393 4.39995 0.354716 4.39995 0.499879V10.3282H0.550154C0.389619 10.3282 0.25807 10.3776 0.154747 10.4766C0.0517089 10.5755 0 10.6927 0 10.8281V13.156C0 13.3019 0.0513769 13.4215 0.154747 13.5155C0.258118 13.6095 0.389335 13.6559 0.550154 13.6559H4.40024V15.4997H0.550154C0.389619 15.4997 0.25807 15.5467 0.154747 15.6407C0.0517089 15.7341 0 15.8543 0 15.9996V17.9997C0 18.1457 0.0513769 18.2653 0.154747 18.3592C0.25807 18.4533 0.389572 18.4997 0.550154 18.4997ZM8.37015 3.32846H13.8702C15.0846 3.32846 16.0642 3.65126 16.8092 4.29708C17.5538 4.94295 17.9263 5.78697 17.9263 6.82822C17.9263 7.86999 17.5538 8.71427 16.8092 9.35936C16.0642 10.0057 15.0846 10.3285 13.8702 10.3285H8.37015V3.32846Z" fill="#0B265B"/>
</svg>
