<svg width="60" height="54" viewBox="0 0 60 54" fill="none" xmlns="http://www.w3.org/2000/svg">
<path fill-rule="evenodd" clip-rule="evenodd" d="M46.6371 18.8679H55.3908C56.1419 18.8679 56.7568 19.484 56.7568 20.2371V52.6308C56.7568 53.3839 56.1419 54 55.3908 54H49.7619H46.6371H0.0208558V50.4183C0.0208558 49.7615 0.556735 49.2245 1.21181 49.2245H43.7555H45.2718H49.7619H50.9753H51.9673V24.0851H49.7619V35.987V37.1705C49.7619 38.3541 49.4691 38.7826 48.4712 38.8029C47.474 38.8235 46.3313 37.5451 46.3313 37.5451L45.2718 36.3742L44.7017 35.7441L25.8417 14.9088L6.78051 38.0058C5.441 39.1861 -0.324019 38.8469 0.0142977 38.0391C8.64479 27.7828 16.7917 17.4921 25.4225 7.23596C25.598 7.01074 25.8716 6.8656 26.1792 6.8656C26.4666 6.8656 26.7248 6.99252 26.9008 7.19365L45.2718 27.5051V20.2371C45.2718 19.484 45.8859 18.8679 46.6371 18.8679Z" fill="white"/>
<path d="M44.527 9.34523C43.5915 8.48569 43.531 7.03092 44.3919 6.09646C45.2531 5.16199 46.7096 5.10164 47.6445 5.96188L50.7395 8.79995L55.7724 1.04606C56.4635 -0.0181322 57.8881 -0.319915 58.9529 0.371047C60.0177 1.06201 60.3205 2.48417 59.6287 3.54767L53.1824 13.4814C53.099 13.6252 52.999 13.7624 52.8809 13.8897C52.0203 14.8244 50.5638 14.8845 49.6282 14.0247L44.527 9.34523Z" fill="white"/>
</svg>
