<svg width="35" height="35" viewBox="0 0 35 35" fill="none" xmlns="http://www.w3.org/2000/svg">
<path fill-rule="evenodd" clip-rule="evenodd" d="M0 17.5C0 7.84 7.82251 0 17.4825 0C27.16 0 35 7.84 35 17.5C35 27.16 27.16 35 17.4825 35C7.82251 35 0 27.16 0 17.5ZM17.5 23.5375L23.135 26.9325C23.8 27.335 24.605 26.74 24.43 25.9875L22.9425 19.565L27.895 15.2775C28.49 14.77 28.175 13.8075 27.405 13.7375L20.86 13.1776L18.305 7.15755C18.0075 6.44005 16.9925 6.44005 16.695 7.15755L14.14 13.195L7.59499 13.755C6.82499 13.825 6.51001 14.7875 7.08751 15.295L12.04 19.5825L10.5525 25.9875C10.3775 26.74 11.2 27.335 11.865 26.9325L17.5 23.5375Z" fill="#F2C94C"/>
</svg>
