<svg width="60" height="48" viewBox="0 0 60 48" fill="none" xmlns="http://www.w3.org/2000/svg">
<path d="M6 1H54C56.7477 1 59 3.25228 59 6V42C59 44.7477 56.7477 47 54 47H6C3.25228 47 1 44.7477 1 42V6C1 3.25228 3.25228 1 6 1Z" stroke="white" stroke-width="2"/>
<path fill-rule="evenodd" clip-rule="evenodd" d="M38.9604 13.56C38.6464 14.0753 38.7794 14.7271 39.2803 15.0616C43.4786 17.9161 44.9403 23.2815 42.766 27.824C42.5044 28.3679 42.7144 29.008 43.2482 29.2998C43.8658 29.6375 44.6716 29.3913 44.972 28.7608C47.6224 23.2193 45.8417 16.6826 40.7272 13.179C40.1549 12.7785 39.3297 12.9537 38.9604 13.56ZM34.1837 21.4006L33.2789 22.8859C33.0388 23.2799 33.1746 23.7784 33.5828 24.0016L35.1215 24.8429C35.6134 25.1119 36.2651 24.8553 36.3934 24.3126C36.654 23.2092 36.3392 22.0539 35.5505 21.2185C35.1699 20.8353 34.473 20.9257 34.1837 21.4006ZM36.7661 19.1084C36.3025 18.7471 36.1781 18.127 36.4797 17.6319C36.8552 17.0155 37.7032 16.8259 38.2675 17.2624C41.0808 19.4471 42.0918 23.1586 40.7639 26.4263C40.5054 27.0796 39.6663 27.3346 39.0383 26.9912L39.0278 26.9855C38.5149 26.7051 38.3157 26.1046 38.5253 25.5659C39.4371 23.2561 38.73 20.6603 36.7661 19.1084Z" fill="white"/>
<path d="M29.1932 18.5802L32.3185 29.9901C32.6332 31.1393 31.603 32.2892 30.3803 32.0818L20.8338 30.625L18.0313 30.2159L16.3578 30.6546C15.4374 30.8958 14.482 30.3544 14.2346 29.4515L13.785 27.8098C13.5376 26.9068 14.0884 25.9707 15.0088 25.7294L16.6822 25.2908L26.4231 17.6347C27.3985 16.9391 28.8559 17.3489 29.1932 18.5802Z" stroke="white" stroke-width="2" stroke-miterlimit="10" stroke-linecap="round" stroke-linejoin="round"/>
<path d="M21.68 30.9512L22.2852 33.1679C22.5318 34.0711 21.9808 35.0079 21.0608 35.2499C20.559 35.3818 20.096 35.3276 19.7554 35.0652C19.3312 34.8247 19.0519 34.4582 18.9398 34.0477L18.0432 30.7636L18.8796 30.5437L21.68 30.9512Z" stroke="white" stroke-miterlimit="10" stroke-linecap="round" stroke-linejoin="round"/>
</svg>
