<svg width="60" height="48" viewBox="0 0 60 48" fill="none" xmlns="http://www.w3.org/2000/svg">
<path d="M6 1H54C56.7477 1 59 3.25228 59 6V42C59 44.7477 56.7477 47 54 47H6C3.25228 47 1 44.7477 1 42V6C1 3.25228 3.25228 1 6 1Z" fill="white" stroke="#3E8CE0" stroke-width="2"/>
<mask id="path-2-inside-1" fill="white">
<path fill-rule="evenodd" clip-rule="evenodd" d="M38.9604 13.56C38.6464 14.0753 38.7794 14.7271 39.2803 15.0616C43.4786 17.9161 44.9403 23.2815 42.766 27.824C42.5044 28.3679 42.7144 29.008 43.2482 29.2998C43.8658 29.6375 44.6716 29.3913 44.972 28.7608C47.6224 23.2193 45.8417 16.6826 40.7272 13.179C40.1549 12.7785 39.3297 12.9537 38.9604 13.56ZM34.1837 21.4006L33.2789 22.8859C33.0388 23.2799 33.1746 23.7784 33.5828 24.0016L35.1215 24.8429C35.6134 25.1119 36.2651 24.8553 36.3934 24.3126C36.654 23.2092 36.3392 22.0539 35.5505 21.2185C35.1699 20.8353 34.473 20.9257 34.1837 21.4006ZM36.7661 19.1084C36.3025 18.7471 36.1781 18.127 36.4797 17.6319C36.8552 17.0155 37.7032 16.8259 38.2675 17.2624C41.0808 19.4471 42.0918 23.1586 40.7639 26.4263C40.5054 27.0796 39.6663 27.3346 39.0383 26.9912L39.0278 26.9855C38.5149 26.7051 38.3157 26.1046 38.5253 25.5659C39.4371 23.2561 38.73 20.6603 36.7661 19.1084Z"/>
</mask>
<path fill-rule="evenodd" clip-rule="evenodd" d="M38.9604 13.56C38.6464 14.0753 38.7794 14.7271 39.2803 15.0616C43.4786 17.9161 44.9403 23.2815 42.766 27.824C42.5044 28.3679 42.7144 29.008 43.2482 29.2998C43.8658 29.6375 44.6716 29.3913 44.972 28.7608C47.6224 23.2193 45.8417 16.6826 40.7272 13.179C40.1549 12.7785 39.3297 12.9537 38.9604 13.56ZM34.1837 21.4006L33.2789 22.8859C33.0388 23.2799 33.1746 23.7784 33.5828 24.0016L35.1215 24.8429C35.6134 25.1119 36.2651 24.8553 36.3934 24.3126C36.654 23.2092 36.3392 22.0539 35.5505 21.2185C35.1699 20.8353 34.473 20.9257 34.1837 21.4006ZM36.7661 19.1084C36.3025 18.7471 36.1781 18.127 36.4797 17.6319C36.8552 17.0155 37.7032 16.8259 38.2675 17.2624C41.0808 19.4471 42.0918 23.1586 40.7639 26.4263C40.5054 27.0796 39.6663 27.3346 39.0383 26.9912L39.0278 26.9855C38.5149 26.7051 38.3157 26.1046 38.5253 25.5659C39.4371 23.2561 38.73 20.6603 36.7661 19.1084Z" fill="#3E8CE0"/>
<path d="M39.2803 15.0616L39.8413 14.2387L39.8343 14.234L39.2803 15.0616ZM42.766 27.824L43.6703 28.2603L43.6711 28.2586L42.766 27.824ZM44.972 28.7608L44.0668 28.3264L44.0661 28.3278L44.972 28.7608ZM40.7272 13.179L40.155 13.9942L40.1633 13.9999L40.7272 13.179ZM34.1837 21.4006L35.0415 21.9227L35.0415 21.9227L34.1837 21.4006ZM33.2789 22.8859L32.4211 22.3638L32.4211 22.3638L33.2789 22.8859ZM33.5828 24.0016L33.1054 24.8756L33.1054 24.8756L33.5828 24.0016ZM35.1215 24.8429L35.5989 23.9689L35.5989 23.9689L35.1215 24.8429ZM36.3934 24.3126L37.3688 24.5479L37.3689 24.5477L36.3934 24.3126ZM35.5505 21.2185L36.2782 20.5377L36.2694 20.5284L36.2604 20.5193L35.5505 21.2185ZM36.7661 19.1084L37.3856 18.3284L37.3801 18.3241L36.7661 19.1084ZM38.2675 17.2624L38.8802 16.4771L38.8787 16.4759L38.2675 17.2624ZM40.7639 26.4263L39.8346 26.0462L39.8313 26.0547L40.7639 26.4263ZM38.5253 25.5659L37.5923 25.1951L37.5906 25.1996L38.5253 25.5659ZM38.1026 13.0379C37.5246 13.9867 37.7566 15.2416 38.7264 15.8892L39.8343 14.234C39.8086 14.2168 39.7994 14.1992 39.7955 14.1807C39.7912 14.1604 39.7915 14.1257 39.8181 14.082L38.1026 13.0379ZM38.7194 15.8845C42.5061 18.4592 43.8231 23.2898 41.8608 27.3893L43.6711 28.2586C46.0574 23.2733 44.4511 17.373 39.8413 14.2387L38.7194 15.8845ZM41.8616 27.3877C41.3693 28.4114 41.7699 29.6265 42.7708 30.1738L43.7256 28.4259C43.6876 28.4051 43.6695 28.3782 43.6614 28.3534C43.6533 28.3288 43.6523 28.2978 43.6703 28.2603L41.8616 27.3877ZM42.7708 30.1738C43.8809 30.7808 45.3255 30.3535 45.8779 29.1938L44.0661 28.3278C44.0449 28.3722 43.9996 28.4172 43.9246 28.4405C43.8487 28.464 43.7773 28.4541 43.7256 28.4259L42.7708 30.1738ZM45.8773 29.1952C48.7398 23.2101 46.8132 16.1409 41.2911 12.3581L40.1633 13.9999C44.8702 17.2242 46.505 23.2284 44.0668 28.3264L45.8773 29.1952ZM41.2994 12.3638C40.2372 11.6206 38.7619 11.9558 38.1026 13.0379L39.8181 14.082C39.8521 14.0262 39.9109 13.9836 39.9854 13.9676C40.0602 13.9515 40.1185 13.9686 40.1551 13.9941L41.2994 12.3638ZM33.326 20.8785L32.4211 22.3638L34.1366 23.408L35.0415 21.9227L33.326 20.8785ZM32.4211 22.3638C31.8854 23.2432 32.1944 24.3775 33.1054 24.8756L34.0602 23.1277C34.0993 23.1491 34.1386 23.1937 34.1547 23.253C34.1709 23.3123 34.1596 23.3702 34.1366 23.408L32.4211 22.3638ZM33.1054 24.8756L34.6441 25.7169L35.5989 23.9689L34.0602 23.1277L33.1054 24.8756ZM34.6441 25.7169C35.6663 26.2758 37.0765 25.7843 37.3688 24.5479L35.4179 24.0773C35.436 24.0006 35.4885 23.9664 35.5074 23.9587C35.5225 23.9525 35.5562 23.9456 35.5989 23.9689L34.6441 25.7169ZM37.3689 24.5477C37.7071 23.1155 37.2969 21.6166 36.2782 20.5377L34.8228 21.8994C35.3815 22.4912 35.6008 23.3029 35.4178 24.0776L37.3689 24.5477ZM36.2604 20.5193C35.3915 19.6444 33.9309 19.8857 33.326 20.8786L35.0415 21.9227C35.0136 21.9685 34.9794 21.9761 34.9716 21.9771C34.9647 21.978 34.9041 21.9817 34.8405 21.9177L36.2604 20.5193ZM37.3801 18.3241C37.338 18.2913 37.3238 18.2582 37.3194 18.236C37.3153 18.215 37.3165 18.1883 37.3374 18.154L35.622 17.1098C35.0491 18.0501 35.2994 19.2282 36.1522 19.8927L37.3801 18.3241ZM37.3374 18.154C37.3757 18.0911 37.4425 18.0445 37.5183 18.0284C37.5913 18.0129 37.6343 18.0318 37.6564 18.0488L38.8787 16.4759C37.7919 15.6352 36.2741 16.0394 35.622 17.1098L37.3374 18.154ZM37.6548 18.0476C40.1138 19.9573 40.9942 23.193 39.8347 26.0462L41.6932 26.8063C43.1895 23.1242 42.0477 18.937 38.8802 16.4771L37.6548 18.0476ZM39.8313 26.0547C39.8251 26.0703 39.8024 26.1081 39.7272 26.1321C39.6491 26.1571 39.57 26.147 39.5157 26.1173L38.5609 27.8652C39.6591 28.4657 41.1942 28.0677 41.6966 26.7978L39.8313 26.0547ZM39.5157 26.1173L39.5052 26.1115L38.5504 27.8595L38.5609 27.8652L39.5157 26.1173ZM39.5052 26.1115C39.474 26.0945 39.4601 26.0746 39.4524 26.0523C39.4437 26.0273 39.4392 25.9857 39.46 25.9322L37.5906 25.1996C37.2116 26.1737 37.5651 27.3207 38.5504 27.8595L39.5052 26.1115ZM39.4582 25.9368C40.5314 23.2183 39.6969 20.1549 37.3856 18.3284L36.1467 19.8884C37.7631 21.1658 38.3428 23.2939 37.5923 25.1951L39.4582 25.9368Z" fill="#3E8CE0" mask="url(#path-2-inside-1)"/>
<path d="M29.1932 18.5802L32.3185 29.9901C32.6332 31.1393 31.603 32.2892 30.3803 32.0818L20.8338 30.625L18.0313 30.2159L16.3578 30.6546C15.4374 30.8958 14.482 30.3544 14.2346 29.4515L13.785 27.8098C13.5376 26.9068 14.0884 25.9707 15.0088 25.7294L16.6822 25.2908L26.4231 17.6347C27.3985 16.9391 28.8559 17.3489 29.1932 18.5802Z" fill="white" stroke="#3E8CE0" stroke-width="2" stroke-miterlimit="10" stroke-linecap="round" stroke-linejoin="round"/>
<path d="M21.68 30.9512L22.2852 33.1679C22.5318 34.0711 21.9808 35.0079 21.0608 35.2499C20.559 35.3818 20.096 35.3276 19.7554 35.0652C19.3312 34.8247 19.0519 34.4582 18.9398 34.0477L18.0432 30.7636L18.8796 30.5437L21.68 30.9512Z" fill="white" stroke="#3E8CE0" stroke-miterlimit="10" stroke-linecap="round" stroke-linejoin="round"/>
</svg>
