<svg width="60" height="48" viewBox="0 0 60 48" fill="none" xmlns="http://www.w3.org/2000/svg">
<path d="M6 1H54C56.7477 1 59 3.25228 59 6V42C59 44.7477 56.7477 47 54 47H6C3.25228 47 1 44.7477 1 42V6C1 3.25228 3.25228 1 6 1Z" stroke="#3E8CE0" stroke-width="2"/>
<path d="M39.5608 14.6501L39.5573 14.6478C39.2909 14.4699 39.2073 14.1196 39.3892 13.821L38.9604 13.56L39.3892 13.821C39.6136 13.4527 40.1138 13.3575 40.4412 13.5866L40.4411 13.5866L40.4453 13.5894C45.3559 16.9534 47.0637 23.2238 44.5194 28.5436L44.5191 28.5443C44.3447 28.9102 43.8582 29.0659 43.4869 28.8628L43.2482 29.2998L43.4869 28.8628C43.1866 28.6987 43.0719 28.3461 43.2181 28.0421L43.2185 28.0413C45.4988 23.2774 43.9648 17.6445 39.5608 14.6502L39.5608 14.6501ZM34.6126 21.6617L34.6126 21.6617C34.743 21.4476 35.0539 21.4311 35.192 21.5647C35.8618 22.2778 36.1268 23.2586 35.9056 24.1951C35.8592 24.3909 35.5869 24.5299 35.3602 24.4059L35.3602 24.4059L33.8215 23.5646C33.6647 23.4789 33.6155 23.2983 33.7077 23.1469L34.6126 21.6617ZM37.0758 18.7184L37.0759 18.7184L37.0731 18.7163C36.804 18.5066 36.7426 18.1654 36.9086 17.8929C37.1457 17.5038 37.6585 17.4212 37.9616 17.6553C40.5974 19.7025 41.5429 23.1759 40.2993 26.2362L40.2976 26.2405C40.1611 26.5856 39.6699 26.7691 39.277 26.5542L39.277 26.5542L39.2665 26.5485C39.2665 26.5485 39.2665 26.5485 39.2665 26.5485C38.9901 26.3974 38.868 26.0707 38.9923 25.75C39.984 23.2362 39.2131 20.4073 37.0758 18.7184Z" fill="#3E8CE0" stroke="#3E8CE0"/>
<path d="M29.1932 18.5802L32.3185 29.9901C32.6332 31.1393 31.603 32.2892 30.3803 32.0818L20.8338 30.625L18.0313 30.2159L16.3578 30.6546C15.4374 30.8958 14.482 30.3544 14.2346 29.4515L13.785 27.8098C13.5376 26.9068 14.0884 25.9707 15.0088 25.7294L16.6822 25.2908L26.4231 17.6347C27.3985 16.9391 28.8559 17.3489 29.1932 18.5802Z" stroke="#3E8CE0" stroke-width="2" stroke-miterlimit="10" stroke-linecap="round" stroke-linejoin="round"/>
<path d="M21.68 30.9512L22.2852 33.1679C22.5318 34.0711 21.9808 35.0079 21.0608 35.2499C20.559 35.3818 20.096 35.3276 19.7554 35.0652C19.3312 34.8247 19.0519 34.4582 18.9398 34.0477L18.0432 30.7636L18.8796 30.5437L21.68 30.9512Z" stroke="#3E8CE0" stroke-miterlimit="10" stroke-linecap="round" stroke-linejoin="round"/>
</svg>
