<svg width="20" height="20" viewBox="0 0 20 20" fill="none" xmlns="http://www.w3.org/2000/svg">
<path fill-rule="evenodd" clip-rule="evenodd" d="M17.7127 10C17.7127 10.34 17.6818 10.66 17.6407 10.98L19.8099 12.63C20.0052 12.78 20.0566 13.05 19.9333 13.27L17.8772 16.73C17.7538 16.95 17.4865 17.04 17.2501 16.95L14.6902 15.95C14.1556 16.34 13.5799 16.68 12.9528 16.93L12.5621 19.58C12.5313 19.82 12.3154 20 12.0584 20H7.94618C7.68916 20 7.47325 19.82 7.44241 19.58L7.05174 16.93C6.42463 16.68 5.84892 16.35 5.31433 15.95L2.75448 16.95C2.52831 17.03 2.25075 16.95 2.12739 16.73L0.0712781 13.27C-0.0520884 13.05 -0.000690666 12.78 0.19464 12.63L2.36382 10.98C2.3227 10.66 2.29188 10.33 2.29188 10C2.29188 9.67 2.3227 9.34002 2.36382 9.02002L0.19464 7.37C-0.000690666 7.22 -0.0623689 6.94998 0.0712781 6.72998L2.12739 3.27002C2.25075 3.05002 2.51803 2.95999 2.75448 3.04999L5.31433 4.04999C5.84892 3.65999 6.42463 3.32001 7.05174 3.07001L7.44241 0.419983C7.47325 0.179983 7.68916 0 7.94618 0H12.0584C12.3154 0 12.5313 0.179983 12.5621 0.419983L12.9528 3.07001C13.5799 3.32001 14.1556 3.64999 14.6902 4.04999L17.2501 3.04999C17.4762 2.96999 17.7538 3.05002 17.8772 3.27002L19.9333 6.72998C20.0566 6.94998 20.0052 7.22 19.8099 7.37L17.6407 9.02002C17.6818 9.34002 17.7127 9.66 17.7127 10ZM6.4041 10C6.4041 11.93 8.01814 13.5 10.0023 13.5C11.9864 13.5 13.6005 11.93 13.6005 10C13.6005 8.07 11.9864 6.5 10.0023 6.5C8.01814 6.5 6.4041 8.07 6.4041 10Z" fill="#C4C4C4"/>
</svg>
