<svg width="22" height="23" viewBox="0 0 22 23" fill="none" xmlns="http://www.w3.org/2000/svg">
<path d="M22 18.4144V21.5115C22 21.7706 21.758 21.9918 21.4736 21.9918H21.4374C20.5951 22.0138 19.745 21.9918 18.898 21.9918H0.528C0.242 21.9918 0 21.7718 0 21.5115V18.4156C0 18.1565 0.242 17.9365 0.526429 17.9365H0.562571C1.40486 17.9169 2.255 17.9365 3.102 17.9365H21.472C21.758 17.9243 22 18.1663 22 18.4156V18.4144ZM9.009 5.70448H12.9894C13.3226 5.70448 13.607 5.8206 13.607 5.95748V5.9746C13.6353 6.38037 13.607 6.78982 13.607 7.19682V16.0433C13.607 16.1802 13.3226 16.2963 12.9894 16.2963H9.009C8.67586 16.2963 8.39143 16.1802 8.39143 16.0433V16.0262C8.36786 15.6204 8.39143 15.2109 8.39143 14.8039V5.95626C8.37571 5.81937 8.68843 5.70326 9.009 5.70326V5.70448Z" fill="#8ADA4B"/>
<path d="M10.4357 0.177661C10.587 0.0637132 10.7893 0 10.9999 0C11.2105 0 11.4128 0.0637132 11.564 0.177661L21.7642 7.92899C22.267 8.31033 21.9119 8.96299 21.2 8.96299H0.801313C0.0894556 8.96299 -0.267259 8.31033 0.235599 7.92899L10.4373 0.177661H10.4357Z" fill="#8ADA4B"/>
</svg>
