<svg width="22" height="22" viewBox="0 0 22 22" fill="none" xmlns="http://www.w3.org/2000/svg">
<path d="M18.99 18.4224V21.5118C18.99 21.7708 18.8137 21.99 18.6077 21.99H18.5822C17.9695 22.0125 17.3525 21.99 16.7377 21.99H3.39462C3.29374 21.9879 3.19746 21.9369 3.12612 21.8476C3.05478 21.7584 3.01397 21.638 3.01233 21.5118V18.4237C3.01233 18.1647 3.18861 17.9455 3.39462 17.9455H3.42011C4.03284 17.9256 4.64981 17.9455 5.26467 17.9455H18.6077C18.8137 17.9323 18.99 18.1753 18.99 18.4237V18.4224ZM21.4207 4.02583C20.7836 4.46414 20.1486 4.89714 19.5093 5.33412L16.4669 7.41942L16.0634 7.69569L14.5512 5.30889C13.6602 3.90894 12.7725 2.50502 11.8826 1.10375L11.2698 0.139465C11.1498 -0.047814 10.8461 -0.0451576 10.7293 0.139465C10.1686 1.02671 9.60368 1.91396 9.04086 2.80121C8.00619 4.43375 6.97046 6.06525 5.93368 7.69569C5.3921 7.3291 4.8537 6.95853 4.31318 6.59194L1.27184 4.51461C1.04034 4.35788 0.810967 4.1985 0.578406 4.04177C0.298059 3.85183 -0.0874191 4.1706 0.0177112 4.58235L0.315049 5.78306L1.03503 8.66529C1.326 9.82615 1.61378 10.987 1.90262 12.1479L2.65022 15.151C2.77234 15.6398 2.88171 16.1365 3.01764 16.6187C3.01976 16.6253 3.01976 16.6346 3.02295 16.6412C3.04683 16.7412 3.0955 16.829 3.16194 16.892C3.22838 16.9551 3.30912 16.99 3.3925 16.9919H16.7345C17.3504 16.9919 17.9642 17.0118 18.579 16.9919H18.6045C18.6924 16.9891 18.7771 16.9501 18.8455 16.8809C18.9138 16.8117 18.962 16.7163 18.9826 16.6094L19.2725 15.4405C19.5125 14.4842 19.7503 13.5239 19.9903 12.5663L20.8622 9.06907L21.6119 6.05667C21.7351 5.57187 21.8774 5.08442 21.9772 4.59298C21.9772 4.58634 21.9793 4.57969 21.9825 4.5704C22.0866 4.15599 21.7043 3.83589 21.4207 4.02716V4.02583ZM12.8617 11.0176V11.0441C12.8496 11.6163 12.6713 12.1634 12.3602 12.5831C12.049 13.0028 11.6263 13.2664 11.1711 13.3247C10.3258 13.4389 9.54103 12.7602 9.249 11.7866C8.99414 10.9312 9.20652 9.90053 9.7481 9.29752C10.0229 8.98967 10.3638 8.78934 10.7286 8.72135C11.0934 8.65336 11.4662 8.72069 11.8008 8.915C12.4411 9.28158 12.8447 10.1184 12.8627 10.9857V11.0176H12.8617Z" fill="#FFC447"/>
</svg>
