<svg width="32" height="32" viewBox="0 0 32 32" fill="none" xmlns="http://www.w3.org/2000/svg">
<path d="M4.59324 15.7222L15.9282 8.0003L27.2631 15.7222C28.4024 16.4984 29.662 15.4818 30.8014 14.7056C31.9408 13.9294 32.5221 13.6923 31.3828 12.9161L17.973 3.78112C17.4472 3.40895 16.6877 3.2 15.9282 3.2C15.1686 3.2 14.4091 3.40895 13.854 3.78112L0.444289 12.9161C-0.695079 13.6923 0.585289 13.9294 1.72466 14.7056C2.86403 15.4619 3.45388 16.4984 4.59324 15.7222Z" fill="#F79021"/>
<rect x="8" y="16" width="6.4" height="6.4" fill="#30B1CD"/>
<rect x="17.6" y="16" width="6.4" height="6.4" fill="#30B1CD"/>
<rect x="17.6" y="25.6" width="6.4" height="6.4" fill="#30B1CD"/>
<rect x="8" y="25.6" width="6.4" height="6.4" fill="#30B1CD"/>
<path d="M4.79999 0H7.99999V6.4L4.79999 8V0Z" fill="#F79021"/>
</svg>
