<svg width="20" height="20" viewBox="0 0 20 20" fill="none" xmlns="http://www.w3.org/2000/svg">
<path fill-rule="evenodd" clip-rule="evenodd" d="M0 10C0 4.48 4.48 0 10 0C15.52 0 20 4.48 20 10C20 15.52 15.52 20 10 20C4.48 20 0 15.52 0 10ZM11.4099 16.67V16.09C13.1499 15.76 14.52 14.76 14.54 12.93C14.54 10.41 12.3801 9.53999 10.3601 9.01999C8.34011 8.49999 7.68994 7.94999 7.68994 7.10999C7.68994 6.14999 8.59009 5.47 10.0901 5.47C11.3501 5.47 11.98 5.96 12.21 6.72C12.31 7.08 12.61 7.34 12.98 7.34H13.24C13.83 7.34 14.25 6.75999 14.05 6.20999C13.67 5.14999 12.7999 4.29001 11.4199 3.95001V3.32999C11.4199 2.59999 10.8201 2 10.0901 2H10.0801C9.35008 2 8.75 2.59999 8.75 3.32999V3.92999C7.03 4.29999 5.63989 5.42001 5.63989 7.14001C5.63989 9.19001 7.34007 10.21 9.82007 10.81C12.0501 11.34 12.49 12.12 12.49 12.95C12.49 13.56 12.0501 14.54 10.0901 14.54C8.63009 14.54 7.87008 14.02 7.58008 13.27C7.44008 12.92 7.14002 12.67 6.77002 12.67H6.53003C5.93003 12.67 5.49998 13.28 5.72998 13.83C6.22998 15.06 7.40999 15.79 8.73999 16.07V16.67C8.73999 17.4 9.34007 18 10.0701 18H10.0801C10.8101 18 11.4099 17.4 11.4099 16.67Z" fill="#27AE60"/>
</svg>
