<svg width="30" height="30" viewBox="0 0 30 30" fill="none" xmlns="http://www.w3.org/2000/svg">
<circle cx="15" cy="15" r="14" stroke="#DBDADA" stroke-width="2"/>
<path fill-rule="evenodd" clip-rule="evenodd" d="M19.4531 10.5469C19.4531 13.0072 17.4604 15 15 15C12.5396 15 10.5469 13.0072 10.5469 10.5469C10.5469 8.08652 12.5396 6.09375 15 6.09375C17.4604 6.09375 19.4531 8.08652 19.4531 10.5469ZM6.09375 21.6797C6.09375 18.7184 12.0275 17.2266 15 17.2266C17.9725 17.2266 23.9062 18.7184 23.9062 21.6797V22.793C23.9062 23.4053 23.4053 23.9062 22.793 23.9062H7.20703C6.59473 23.9062 6.09375 23.4053 6.09375 22.793V21.6797Z" fill="#DBDADA"/>
</svg>
