<svg width="17" height="20" viewBox="0 0 17 20" fill="none" xmlns="http://www.w3.org/2000/svg">
<path fill-rule="evenodd" clip-rule="evenodd" d="M11.7647 7.05882H13.6353C14.6823 7.05882 15.2 8.3294 14.4588 9.07058L9.05884 14.4706C8.60001 14.9294 7.85883 14.9294 7.40001 14.4706L2.00001 9.07058C1.25884 8.3294 1.78824 7.05882 2.8353 7.05882H4.70588V1.17647C4.70588 0.529412 5.23529 0 5.88235 0H10.5882C11.2353 0 11.7647 0.529412 11.7647 1.17647V7.05882ZM1.17647 20C0.529412 20 0 19.4706 0 18.8235C0 18.1765 0.529412 17.6471 1.17647 17.6471H15.2941C15.9412 17.6471 16.4706 18.1765 16.4706 18.8235C16.4706 19.4706 15.9412 20 15.2941 20H1.17647Z" fill="#EB5757"/>
</svg>
