<svg width="20" height="18" viewBox="0 0 20 18" fill="none" xmlns="http://www.w3.org/2000/svg">
<path fill-rule="evenodd" clip-rule="evenodd" d="M18 2H14.8301L13.5901 0.650024C13.2201 0.240024 12.6801 0 12.1201 0H7.87988C7.31988 0 6.7799 0.240024 6.3999 0.650024L5.16992 2H2C0.9 2 0 2.9 0 4V16C0 17.1 0.9 18 2 18H18C19.1 18 20 17.1 20 16V4C20 2.9 19.1 2 18 2ZM10 7C8.34 7 7 8.343 7 10C7 11.657 8.34 13 10 13C11.66 13 13 11.657 13 10C13 8.343 11.66 7 10 7ZM5 10C5 12.76 7.24 15 10 15C12.76 15 15 12.76 15 10C15 7.24 12.76 5 10 5C7.24 5 5 7.24 5 10Z" fill="#27AE60"/>
</svg>
