<svg width="100" height="100" viewBox="0 0 100 100" fill="none" xmlns="http://www.w3.org/2000/svg">
<path d="M59.9721 0H90.0721L65.0492 31.9355H34.9492L59.9721 0Z" fill="#0B265B"/>
<path d="M59.9721 0H72.693L47.6701 31.9355H34.9492L59.9721 0Z" fill="#3E8CE0"/>
<path d="M69.7016 0H80.3434L55.3205 31.9355H44.6787L69.7016 0Z" fill="white"/>
<path d="M82.3242 66.6488C82.3242 84.0458 68.2212 98.1488 50.8242 98.1488C33.4273 98.1488 19.3242 84.0458 19.3242 66.6488C19.3242 49.2519 33.4273 35.1488 50.8242 35.1488C68.2212 35.1488 82.3242 49.2519 82.3242 66.6488Z" fill="#8B3E2F" stroke="#F2C94C"/>
<path d="M40.0268 0H9.92676L34.9496 31.9355H65.0496L40.0268 0Z" fill="#3E8CE0"/>
<path d="M40.0277 0H27.3066L52.3297 31.9355H65.0506L40.0277 0Z" fill="#0B265B"/>
<path d="M30.299 0H19.6572L44.6801 31.9355H55.3219L30.299 0Z" fill="white"/>
</svg>
