<svg width="100" height="100" viewBox="0 0 100 100" fill="none" xmlns="http://www.w3.org/2000/svg">
<path d="M20.1614 7.8125H1.7743C1.7743 7.8125 -2.09667 54.6875 41.2904 54.6875" fill="#F2C94C"/>
<path d="M20.1614 7.8125H1.7743C1.7743 7.8125 -2.09667 54.6875 41.2904 54.6875" stroke="#CD7F32"/>
<path d="M80.8063 7.8125H98.2257C98.2257 7.8125 102.258 54.6875 60.1611 54.6875" fill="#F2C94C"/>
<path d="M80.8063 7.8125H98.2257C98.2257 7.8125 102.258 54.6875 60.1611 54.6875" stroke="#CD7F32"/>
<path d="M32.5803 87.5V84.375C32.5803 82.6562 34.0319 81.25 35.9674 81.25L42.5803 79.6875C45.8061 71.875 46.4513 67.3438 45.9674 60.9375H44.3545C42.419 60.9375 40.9674 59.5313 40.9674 57.6563V52.8125C23.0642 45.3125 19.3545 17.8125 19.3545 1.5625H82.2577C82.2577 17.9688 78.548 45.4688 60.6448 52.8125V57.6563C60.6448 59.5313 59.0319 60.9375 57.2577 60.9375H55.9674C55.4835 67.3438 55.9674 72.0312 59.1932 79.6875L67.419 81.25C69.1932 81.25 70.8061 82.6562 70.8061 84.375V87.5" fill="#F2C94C"/>
<path d="M32.5803 87.5V84.375C32.5803 82.6562 34.0319 81.25 35.9674 81.25L42.5803 79.6875C45.8061 71.875 46.4513 67.3437 45.9674 60.9375H44.3545C42.419 60.9375 40.9674 59.5313 40.9674 57.6563V52.8125C23.0642 45.3125 19.3545 17.8125 19.3545 1.5625H82.2577C82.2577 17.9688 78.548 45.4687 60.6448 52.8125V57.6563C60.6448 59.5313 59.0319 60.9375 57.2577 60.9375H55.9674C55.4835 67.3437 55.9674 72.0312 59.1932 79.6875L67.419 81.25C69.1932 81.25 70.8061 82.6562 70.8061 84.375V87.5" stroke="#CD7F32"/>
<path d="M27.0967 8.125C27.0967 8.125 27.9031 36.0937 38.2257 43.75L27.0967 8.125Z" fill="#F2C94C"/>
<path d="M27.0967 8.125C27.0967 8.125 27.9031 36.0937 38.2257 43.75" stroke="#CD7F32"/>
<path d="M64.5164 87.5H74.3551C76.1293 87.5 80.6454 95.3125 80.6454 95.3125C80.6454 97.0313 79.1938 98.4375 77.5809 98.4375H25.8067C24.0325 98.4375 22.7422 97.0313 22.7422 95.3125C22.7422 95.3125 27.2583 87.5 29.0325 87.5H38.8712" fill="#F2C94C"/>
<path d="M64.5164 87.5H74.3551C76.1293 87.5 80.6454 95.3125 80.6454 95.3125C80.6454 97.0313 79.1938 98.4375 77.5809 98.4375H25.8067C24.0325 98.4375 22.7422 97.0313 22.7422 95.3125C22.7422 95.3125 27.2583 87.5 29.0325 87.5H38.8712" stroke="#CD7F32"/>
</svg>
