<svg width="100" height="100" viewBox="0 0 100 100" fill="none" xmlns="http://www.w3.org/2000/svg">
<path fill-rule="evenodd" clip-rule="evenodd" d="M49.95 0C22.35 0 0 22.4 0 50C0 77.6 22.35 100 49.95 100C77.6 100 100 77.6 100 50C100 22.4 77.6 0 49.95 0ZM50 90C27.9 90 10 72.1 10 50C10 27.9 27.9 10 50 10C72.1 10 90 27.9 90 50C90 72.1 72.1 90 50 90ZM75 37.5C75 41.65 71.65 45 67.5 45C63.35 45 60 41.65 60 37.5C60 33.35 63.35 30 67.5 30C71.65 30 75 33.35 75 37.5ZM32.5 45C36.65 45 40 41.65 40 37.5C40 33.35 36.65 30 32.5 30C28.35 30 25 33.35 25 37.5C25 41.65 28.35 45 32.5 45ZM73.75 63.75C69 71.95 60.15 77.5 50 77.5C39.85 77.5 31 71.95 26.25 63.75C25.3 62.1 26.5497 60 28.4497 60H71.5503C73.5003 60 74.7 62.1 73.75 63.75Z" fill="#219653"/>
</svg>
