<svg width="28" height="28" viewBox="0 0 28 28" fill="none" xmlns="http://www.w3.org/2000/svg">
<path d="M18.6011 18.202L18.7464 18.3421H18.9482H19.9697L26.4342 24.8219L26.4347 24.8223C26.8772 25.2648 26.8772 25.9749 26.4347 26.4174L26.4191 26.433C25.9766 26.8755 25.2665 26.8755 24.824 26.433L24.8236 26.4325L18.3438 19.968V18.9467V18.7449L18.2037 18.5996L17.7837 18.164L17.4564 17.8246L17.0984 18.1315C15.027 19.9069 12.2037 20.8233 9.19963 20.3202C5.09331 19.6256 1.80892 16.1926 1.30676 12.0577C0.552256 5.79845 5.80239 0.53609 12.0583 1.30513L12.059 1.30522C16.194 1.80732 19.6272 5.0917 20.3217 9.19807C20.8249 12.2021 19.9084 15.0254 18.133 17.0967L17.8262 17.4547L18.1656 17.782L18.6011 18.202ZM3.34374 10.8421C3.34374 14.9916 6.69427 18.3421 10.8437 18.3421C14.9932 18.3421 18.3438 14.9916 18.3438 10.8421C18.3438 6.69265 14.9932 3.34213 10.8437 3.34213C6.69426 3.34213 3.34374 6.69265 3.34374 10.8421Z" fill="#3E8CE0" stroke="#3E8CE0"/>
</svg>
