<svg width="35" height="35" viewBox="0 0 35 35" fill="none" xmlns="http://www.w3.org/2000/svg">
<path fill-rule="evenodd" clip-rule="evenodd" d="M30.9972 17.5C30.9972 18.095 30.9432 18.655 30.8713 19.215L34.6673 22.1025C35.0092 22.365 35.0991 22.8375 34.8832 23.2225L31.285 29.2775C31.0691 29.6625 30.6014 29.82 30.1876 29.6625L25.7079 27.9125C24.7723 28.595 23.7648 29.19 22.6674 29.6275L21.9837 34.265C21.9298 34.685 21.552 35 21.1022 35H13.9058C13.456 35 13.0782 34.685 13.0242 34.265L12.3406 29.6275C11.2431 29.19 10.2356 28.6125 9.30008 27.9125L4.82035 29.6625C4.42455 29.8025 3.93882 29.6625 3.72293 29.2775L0.124737 23.2225C-0.0911546 22.8375 -0.00120867 22.365 0.340619 22.1025L4.13668 19.215C4.06472 18.655 4.01079 18.0775 4.01079 17.5C4.01079 16.9225 4.06472 16.345 4.13668 15.785L0.340619 12.8975C-0.00120867 12.635 -0.109146 12.1625 0.124737 11.7775L3.72293 5.72253C3.93882 5.33753 4.40656 5.17998 4.82035 5.33748L9.30008 7.08748C10.2356 6.40498 11.2431 5.81001 12.3406 5.37251L13.0242 0.73497C13.0782 0.31497 13.456 0 13.9058 0H21.1022C21.552 0 21.9298 0.31497 21.9837 0.73497L22.6674 5.37251C23.7648 5.81001 24.7723 6.38748 25.7079 7.08748L30.1876 5.33748C30.5834 5.19748 31.0691 5.33753 31.285 5.72253L34.8832 11.7775C35.0991 12.1625 35.0092 12.635 34.6673 12.8975L30.8713 15.785C30.9432 16.345 30.9972 16.905 30.9972 17.5ZM11.2072 17.5C11.2072 20.8775 14.0317 23.625 17.504 23.625C20.9763 23.625 23.8008 20.8775 23.8008 17.5C23.8008 14.1225 20.9763 11.375 17.504 11.375C14.0317 11.375 11.2072 14.1225 11.2072 17.5Z" fill="#8D8D8D"/>
</svg>
