<svg width="60" height="46" viewBox="0 0 60 46" fill="none" xmlns="http://www.w3.org/2000/svg">
<path d="M14.1176 45H3.52941C2.14293 45 1 43.8578 1 42.4615V3.53846C1 2.14218 2.14293 1 3.52941 1H14.1176C15.5041 1 16.6471 2.14218 16.6471 3.53846V42.4615C16.6471 43.8578 15.5041 45 14.1176 45ZM35.2941 45H24.7059C23.3194 45 22.1765 43.8578 22.1765 42.4615V28.3077C22.1765 26.9114 23.3194 25.7692 24.7059 25.7692H35.2941C36.6806 25.7692 37.8235 26.9114 37.8235 28.3077V42.4615C37.8235 43.8578 36.6806 45 35.2941 45ZM56.4706 45H45.8824C44.4959 45 43.3529 43.8578 43.3529 42.4615V28.3077C43.3529 26.9114 44.4959 25.7692 45.8824 25.7692H56.4706C57.8571 25.7692 59 26.9114 59 28.3077V42.4615C59 43.8578 57.8571 45 56.4706 45ZM22.1765 17.6923V3.53846C22.1765 2.14218 23.3194 1 24.7059 1H56.4706C57.8571 1 59 2.14218 59 3.53846V17.6923C59 19.0886 57.8571 20.2308 56.4706 20.2308H24.7059C23.3194 20.2308 22.1765 19.0886 22.1765 17.6923Z" stroke="white" stroke-width="2"/>
<path d="M45.4325 6.8501L46.8725 8.29004L41.9925 13.17L38.7025 9.88C38.5155 9.7 38.2625 9.59009 37.9975 9.59009C37.7335 9.59009 37.4795 9.7 37.2925 9.88L31.2925 15.89C30.9025 16.28 30.9025 16.91 31.2925 17.3C31.6825 17.69 32.3125 17.69 32.7025 17.3L37.9925 12L41.2825 15.29C41.6725 15.68 42.3025 15.68 42.6925 15.29L48.2825 9.71008L49.7225 11.15C50.0325 11.46 50.5725 11.24 50.5725 10.8V6.5C50.5825 6.22 50.3625 6 50.0825 6H45.7925C45.3425 6 45.1225 6.5401 45.4325 6.8501Z" fill="white"/>
<path d="M10.7054 33.2878C10.5796 33.4136 10.5691 33.6092 10.681 33.7489C11.188 34.3846 11.4538 35.2544 11.216 36.1661C10.9397 37.2315 10.104 38.0279 9.04445 38.2409C7.26106 38.5937 5.69797 37.2175 5.69797 35.4954C5.69797 34.0702 6.7645 32.8966 8.14576 32.7254V33.431C7.05125 33.6161 6.24697 34.6396 6.42181 35.8168C6.55819 36.7285 7.31701 37.462 8.23318 37.5738C9.50603 37.7309 10.5935 36.7389 10.5935 35.4954C10.5935 35.0588 10.4607 34.6571 10.2334 34.3218C10.1145 34.1471 9.85921 34.1366 9.70885 34.2833L9.70535 34.2868C9.58646 34.4056 9.57597 34.5907 9.66688 34.7305C9.8767 35.0518 9.96062 35.464 9.83823 35.8901C9.70185 36.3687 9.29972 36.7494 8.81016 36.8577C7.90098 37.0568 7.0967 36.3722 7.0967 35.4954C7.0967 34.8457 7.5443 34.3043 8.14576 34.1471V34.8946C7.93595 35.0169 7.79607 35.2369 7.79607 35.4954C7.79607 35.8796 8.11079 36.194 8.49544 36.194C8.88009 36.194 9.19481 35.8796 9.19481 35.4954C9.19481 35.2369 9.05494 35.0134 8.84513 34.8946V32.2504C8.84513 32.1141 8.73323 32.0024 8.59685 32.0024C6.72254 31.9325 5.107 33.4206 5.00559 35.2858C4.87971 37.5738 6.89738 39.4146 9.2053 38.9186C10.5621 38.6287 11.6111 37.5912 11.9154 36.2394C12.1636 35.1356 11.8454 34.0877 11.2265 33.3158C11.0971 33.1516 10.8523 33.1411 10.7054 33.2878Z" fill="white"/>
<path d="M5 11H12" stroke="white"/>
<path d="M5 14H12" stroke="white"/>
<path d="M5 17H12" stroke="white"/>
<path d="M5 20H12" stroke="white"/>
<path d="M5 23H12" stroke="white"/>
<line x1="25.5" y1="42" x2="25.5" y2="34" stroke="white"/>
<line x1="27.5" y1="42" x2="27.5" y2="30" stroke="white"/>
<line x1="29.5" y1="42" x2="29.5" y2="32" stroke="white"/>
<line x1="31.5" y1="42" x2="31.5" y2="38" stroke="white"/>
<line x1="33.5" y1="42" x2="33.5" y2="35" stroke="white"/>
<path d="M51.71 34.7056C50.121 34.2794 49.61 33.8389 49.61 33.1528C49.61 32.3656 50.317 31.8167 51.5 31.8167C52.494 31.8167 52.991 32.2067 53.173 32.8278C53.257 33.1167 53.488 33.3333 53.782 33.3333H53.992C54.454 33.3333 54.783 32.8639 54.622 32.4161C54.328 31.5639 53.642 30.8561 52.55 30.5817V30.0833C52.55 29.4839 52.081 29 51.5 29C50.919 29 50.45 29.4839 50.45 30.0833V30.56C49.092 30.8633 48 31.7733 48 33.1672C48 34.8356 49.337 35.6661 51.29 36.15C53.04 36.5833 53.39 37.2189 53.39 37.8906C53.39 38.3889 53.047 39.1833 51.5 39.1833C50.345 39.1833 49.75 38.7572 49.519 38.1506C49.414 37.8689 49.176 37.6667 48.889 37.6667H48.693C48.224 37.6667 47.895 38.1578 48.07 38.6056C48.469 39.6094 49.4 40.2017 50.45 40.4328V40.9167C50.45 41.5161 50.919 42 51.5 42C52.081 42 52.55 41.5161 52.55 40.9167V40.4472C53.915 40.18 55 39.3639 55 37.8833C55 35.8322 53.299 35.1317 51.71 34.7056Z" fill="white"/>
</svg>
