<svg width="60" height="46" viewBox="0 0 60 46" fill="none" xmlns="http://www.w3.org/2000/svg">
<path d="M14.1176 45H3.52941C2.14293 45 1 43.8578 1 42.4615V3.53846C1 2.14218 2.14293 1 3.52941 1H14.1176C15.5041 1 16.6471 2.14218 16.6471 3.53846V42.4615C16.6471 43.8578 15.5041 45 14.1176 45ZM35.2941 45H24.7059C23.3194 45 22.1765 43.8578 22.1765 42.4615V28.3077C22.1765 26.9114 23.3194 25.7692 24.7059 25.7692H35.2941C36.6806 25.7692 37.8235 26.9114 37.8235 28.3077V42.4615C37.8235 43.8578 36.6806 45 35.2941 45ZM56.4706 45H45.8824C44.4959 45 43.3529 43.8578 43.3529 42.4615V28.3077C43.3529 26.9114 44.4959 25.7692 45.8824 25.7692H56.4706C57.8571 25.7692 59 26.9114 59 28.3077V42.4615C59 43.8578 57.8571 45 56.4706 45ZM22.1765 17.6923V3.53846C22.1765 2.14218 23.3194 1 24.7059 1H56.4706C57.8571 1 59 2.14218 59 3.53846V17.6923C59 19.0886 57.8571 20.2308 56.4706 20.2308H24.7059C23.3194 20.2308 22.1765 19.0886 22.1765 17.6923Z" fill="white" stroke="#3E8CE0" stroke-width="2"/>
<path d="M47.2261 8.64359L47.5796 8.29003L47.226 7.93648L45.7896 6.50008C45.7904 6.50003 45.7914 6.5 45.7925 6.5H50.0725V10.7929L48.6361 9.35652L48.2828 9.0033L47.9293 9.35621L42.3393 14.9362L42.339 14.9365C42.1442 15.1312 41.8308 15.1312 41.6361 14.9365L38.3461 11.6464L37.9922 11.2926L37.6386 11.6468L32.349 16.9465C32.1542 17.1412 31.8408 17.1412 31.6461 16.9465C31.4513 16.7518 31.4513 16.4383 31.6461 16.2436L31.6463 16.2433L37.6423 10.2374C37.742 10.1428 37.8725 10.0901 37.9975 10.0901C38.1233 10.0901 38.253 10.1427 38.3529 10.2375L41.6389 13.5236L41.9925 13.8772L42.3461 13.5236L47.2261 8.64359Z" fill="#3E8CE0" stroke="#3E8CE0"/>
<mask id="path-3-inside-1" fill="white">
<path d="M10.7054 33.2878C10.5796 33.4136 10.5691 33.6092 10.681 33.7489C11.188 34.3846 11.4538 35.2544 11.216 36.1661C10.9397 37.2315 10.104 38.0279 9.04445 38.2409C7.26106 38.5937 5.69797 37.2175 5.69797 35.4954C5.69797 34.0702 6.7645 32.8966 8.14576 32.7254V33.431C7.05125 33.6161 6.24697 34.6396 6.42181 35.8168C6.55819 36.7285 7.31701 37.462 8.23318 37.5738C9.50603 37.7309 10.5935 36.7389 10.5935 35.4954C10.5935 35.0588 10.4607 34.6571 10.2334 34.3218C10.1145 34.1471 9.85921 34.1366 9.70885 34.2833L9.70535 34.2868C9.58646 34.4056 9.57597 34.5907 9.66688 34.7305C9.8767 35.0518 9.96062 35.464 9.83823 35.8901C9.70185 36.3687 9.29972 36.7494 8.81016 36.8577C7.90098 37.0568 7.0967 36.3722 7.0967 35.4954C7.0967 34.8457 7.5443 34.3043 8.14576 34.1471V34.8946C7.93595 35.0169 7.79607 35.2369 7.79607 35.4954C7.79607 35.8796 8.11079 36.194 8.49544 36.194C8.88009 36.194 9.19481 35.8796 9.19481 35.4954C9.19481 35.2369 9.05494 35.0134 8.84513 34.8946V32.2504C8.84513 32.1141 8.73323 32.0024 8.59685 32.0024C6.72254 31.9325 5.107 33.4206 5.00559 35.2858C4.87971 37.5738 6.89738 39.4146 9.2053 38.9186C10.5621 38.6287 11.6111 37.5912 11.9154 36.2394C12.1636 35.1356 11.8454 34.0877 11.2265 33.3158C11.0971 33.1516 10.8523 33.1411 10.7054 33.2878Z"/>
</mask>
<path d="M10.7054 33.2878C10.5796 33.4136 10.5691 33.6092 10.681 33.7489C11.188 34.3846 11.4538 35.2544 11.216 36.1661C10.9397 37.2315 10.104 38.0279 9.04445 38.2409C7.26106 38.5937 5.69797 37.2175 5.69797 35.4954C5.69797 34.0702 6.7645 32.8966 8.14576 32.7254V33.431C7.05125 33.6161 6.24697 34.6396 6.42181 35.8168C6.55819 36.7285 7.31701 37.462 8.23318 37.5738C9.50603 37.7309 10.5935 36.7389 10.5935 35.4954C10.5935 35.0588 10.4607 34.6571 10.2334 34.3218C10.1145 34.1471 9.85921 34.1366 9.70885 34.2833L9.70535 34.2868C9.58646 34.4056 9.57597 34.5907 9.66688 34.7305C9.8767 35.0518 9.96062 35.464 9.83823 35.8901C9.70185 36.3687 9.29972 36.7494 8.81016 36.8577C7.90098 37.0568 7.0967 36.3722 7.0967 35.4954C7.0967 34.8457 7.5443 34.3043 8.14576 34.1471V34.8946C7.93595 35.0169 7.79607 35.2369 7.79607 35.4954C7.79607 35.8796 8.11079 36.194 8.49544 36.194C8.88009 36.194 9.19481 35.8796 9.19481 35.4954C9.19481 35.2369 9.05494 35.0134 8.84513 34.8946V32.2504C8.84513 32.1141 8.73323 32.0024 8.59685 32.0024C6.72254 31.9325 5.107 33.4206 5.00559 35.2858C4.87971 37.5738 6.89738 39.4146 9.2053 38.9186C10.5621 38.6287 11.6111 37.5912 11.9154 36.2394C12.1636 35.1356 11.8454 34.0877 11.2265 33.3158C11.0971 33.1516 10.8523 33.1411 10.7054 33.2878Z" fill="#3E8CE0"/>
<path d="M10.681 33.7489L12.2446 32.5018L12.242 32.4987L10.681 33.7489ZM11.216 36.1661L9.28072 35.6613L9.28001 35.6641L11.216 36.1661ZM9.04445 38.2409L9.43257 40.2029L9.43875 40.2017L9.04445 38.2409ZM8.14576 32.7254H10.1458V30.4623L7.89981 30.7406L8.14576 32.7254ZM8.14576 33.431L8.47931 35.403L10.1458 35.1211V33.431H8.14576ZM6.42181 35.8168L4.44351 36.1106L4.44382 36.1127L6.42181 35.8168ZM8.23318 37.5738L8.4783 35.5888L8.47539 35.5885L8.23318 37.5738ZM10.2334 34.3218L11.8889 33.1996L11.8867 33.1963L10.2334 34.3218ZM9.70885 34.2833L8.31214 32.8518L8.30345 32.8603L8.29486 32.8689L9.70885 34.2833ZM9.70535 34.2868L11.1188 35.7018L11.1193 35.7013L9.70535 34.2868ZM9.66688 34.7305L7.99054 35.8213L7.99221 35.8238L9.66688 34.7305ZM9.83823 35.8901L7.91593 35.3381L7.91481 35.342L9.83823 35.8901ZM8.81016 36.8577L9.23801 38.8114L9.24209 38.8105L8.81016 36.8577ZM8.14576 34.1471H10.1458V31.5572L7.64005 32.2121L8.14576 34.1471ZM8.14576 34.8946L9.15268 36.6227L10.1458 36.044V34.8946H8.14576ZM8.84513 34.8946H6.84513V36.0607L7.85991 36.6351L8.84513 34.8946ZM8.59685 32.0024L8.52236 34.001L8.55959 34.0024H8.59685V32.0024ZM5.00559 35.2858L7.00257 35.3957L7.00264 35.3944L5.00559 35.2858ZM9.2053 38.9186L8.78736 36.9628L8.78506 36.9633L9.2053 38.9186ZM11.9154 36.2394L13.8666 36.6786L13.8666 36.6783L11.9154 36.2394ZM11.2265 33.3158L9.65565 34.5537L9.66084 34.5603L9.66609 34.5668L11.2265 33.3158ZM9.292 31.8728C8.43913 32.7248 8.37522 34.0693 9.11989 34.9991L12.242 32.4987C12.7629 33.1491 12.72 34.1024 12.1189 34.7028L9.292 31.8728ZM9.11738 34.996C9.28867 35.2107 9.33761 35.4432 9.28073 35.6613L13.1512 36.6708C13.5699 35.0656 13.0873 33.5585 12.2446 32.5018L9.11738 34.996ZM9.28001 35.6641C9.19242 36.0019 8.94509 36.2209 8.65014 36.2802L9.43875 40.2017C11.2629 39.8349 12.687 38.4611 13.152 36.6681L9.28001 35.6641ZM8.65632 36.279C8.15303 36.3785 7.69797 36.002 7.69797 35.4954H3.69797C3.69797 38.433 6.36908 40.809 9.43257 40.2029L8.65632 36.279ZM7.69797 35.4954C7.69797 35.0944 7.99757 34.7591 8.39171 34.7103L7.89981 30.7406C5.53144 31.0341 3.69797 33.0461 3.69797 35.4954H7.69797ZM6.14576 32.7254V33.431H10.1458V32.7254H6.14576ZM7.8122 31.459C5.68176 31.8194 4.10313 33.8189 4.44352 36.1106L8.40011 35.523C8.39576 35.4937 8.3988 35.4781 8.40061 35.471C8.40284 35.4624 8.40698 35.453 8.41425 35.4432C8.43048 35.4213 8.45401 35.4073 8.47931 35.403L7.8122 31.459ZM4.44382 36.1127C4.71432 37.921 6.18956 39.3393 7.99096 39.559L8.47539 35.5885C8.47456 35.5884 8.45319 35.5845 8.42684 35.5589C8.40068 35.5336 8.39901 35.5156 8.39981 35.5209L4.44382 36.1127ZM7.98806 39.5587C10.4679 39.8649 12.5935 37.9263 12.5935 35.4954H8.59355C8.59355 35.5121 8.59041 35.5231 8.58611 35.5325C8.58104 35.5435 8.57256 35.5556 8.56061 35.5662C8.54887 35.5767 8.537 35.5829 8.52682 35.5862C8.51882 35.5888 8.5046 35.5921 8.4783 35.5888L7.98806 39.5587ZM12.5935 35.4954C12.5935 34.6435 12.332 33.8533 11.8889 33.1996L8.57784 35.4439C8.58478 35.4541 8.58818 35.4622 8.59 35.468C8.59163 35.4732 8.59355 35.4814 8.59355 35.4954H12.5935ZM11.8867 33.1963C10.9817 31.8669 9.24024 31.9463 8.31214 32.8518L11.1055 35.7148C10.4782 36.327 9.24729 36.4273 8.58009 35.4472L11.8867 33.1963ZM8.29486 32.8689L8.29136 32.8724L11.1193 35.7013L11.1228 35.6978L8.29486 32.8689ZM8.2919 32.8719C7.44005 33.7228 7.43507 34.9676 7.99054 35.8213L11.3432 33.6396C11.7169 34.2138 11.7329 35.0884 11.1188 35.7018L8.2919 32.8719ZM7.99221 35.8238C7.95011 35.7594 7.91749 35.6809 7.903 35.5916C7.888 35.4992 7.89506 35.4107 7.91594 35.3381L11.7605 36.4422C12.0526 35.4253 11.8501 34.416 11.3416 33.6371L7.99221 35.8238ZM7.91481 35.342C7.94999 35.2185 8.01382 35.1243 8.08469 35.0575C8.15579 34.9905 8.2537 34.9325 8.37822 34.9049L9.24209 38.8105C10.4506 38.5432 11.4243 37.6219 11.7616 36.4383L7.91481 35.342ZM8.38231 34.904C8.74137 34.8254 9.0967 35.1166 9.0967 35.4954H5.0967C5.0967 37.6277 7.06059 39.2883 9.238 38.8114L8.38231 34.904ZM9.0967 35.4954C9.0967 35.7965 8.88998 36.0198 8.65146 36.0821L7.64005 32.2121C6.19862 32.5888 5.0967 33.8949 5.0967 35.4954H9.0967ZM6.14576 34.1471V34.8946H10.1458V34.1471H6.14576ZM7.13883 33.1666C6.35771 33.6217 5.79607 34.4762 5.79607 35.4954H9.79607C9.79607 35.9976 9.51418 36.412 9.15268 36.6227L7.13883 33.1666ZM5.79607 35.4954C5.79607 36.9863 7.00827 38.194 8.49544 38.194V34.194C9.21331 34.194 9.79607 34.773 9.79607 35.4954H5.79607ZM8.49544 38.194C9.98262 38.194 11.1948 36.9863 11.1948 35.4954H7.19481C7.19481 34.773 7.77757 34.194 8.49544 34.194V38.194ZM11.1948 35.4954C11.1948 34.4916 10.6455 33.6155 9.83034 33.1541L7.85991 36.6351C7.46438 36.4112 7.19481 35.9822 7.19481 35.4954H11.1948ZM10.8451 34.8946V32.2504H6.84513V34.8946H10.8451ZM10.8451 32.2504C10.8451 31.0074 9.83561 30.0024 8.59685 30.0024V34.0024C7.63084 34.0024 6.84513 33.2209 6.84513 32.2504H10.8451ZM8.67134 30.0038C5.69835 29.8929 3.16875 32.2305 3.00854 35.1773L7.00264 35.3944C7.04526 34.6106 7.74674 33.9721 8.52236 34.001L8.67134 30.0038ZM3.00861 35.176C2.81386 38.7156 5.96462 41.6608 9.62554 40.874L8.78506 36.9633C7.83015 37.1685 6.94555 36.432 7.00257 35.3957L3.00861 35.176ZM9.62324 40.8745C11.7425 40.4216 13.3908 38.7926 13.8666 36.6786L9.96415 35.8003C9.83147 36.3899 9.38169 36.8358 8.78736 36.9628L9.62324 40.8745ZM13.8666 36.6783C14.2617 34.9216 13.7465 33.2616 12.7869 32.0647L9.66609 34.5668C9.94435 34.9139 10.0655 35.3496 9.9641 35.8005L13.8666 36.6783ZM12.7973 32.0778C11.9041 30.9444 10.2599 30.906 9.292 31.8728L12.1189 34.7028C11.4447 35.3763 10.2901 35.3588 9.65565 34.5537L12.7973 32.0778Z" fill="#3E8CE0" mask="url(#path-3-inside-1)"/>
<path d="M5 11H12" stroke="#3E8CE0"/>
<path d="M5 14H12" stroke="#3E8CE0"/>
<path d="M5 17H12" stroke="#3E8CE0"/>
<path d="M5 20H12" stroke="#3E8CE0"/>
<path d="M5 23H12" stroke="#3E8CE0"/>
<line x1="25.5" y1="42" x2="25.5" y2="34" stroke="#3E8CE0"/>
<line x1="27.5" y1="42" x2="27.5" y2="30" stroke="#3E8CE0"/>
<line x1="29.5" y1="42" x2="29.5" y2="32" stroke="#3E8CE0"/>
<line x1="31.5" y1="42" x2="31.5" y2="38" stroke="#3E8CE0"/>
<line x1="33.5" y1="42" x2="33.5" y2="35" stroke="#3E8CE0"/>
<path d="M51.71 34.7056C50.121 34.2794 49.61 33.8389 49.61 33.1528C49.61 32.3656 50.317 31.8167 51.5 31.8167C52.494 31.8167 52.991 32.2067 53.173 32.8278C53.257 33.1167 53.488 33.3333 53.782 33.3333H53.992C54.454 33.3333 54.783 32.8639 54.622 32.4161C54.328 31.5639 53.642 30.8561 52.55 30.5817V30.0833C52.55 29.4839 52.081 29 51.5 29C50.919 29 50.45 29.4839 50.45 30.0833V30.56C49.092 30.8633 48 31.7733 48 33.1672C48 34.8356 49.337 35.6661 51.29 36.15C53.04 36.5833 53.39 37.2189 53.39 37.8906C53.39 38.3889 53.047 39.1833 51.5 39.1833C50.345 39.1833 49.75 38.7572 49.519 38.1506C49.414 37.8689 49.176 37.6667 48.889 37.6667H48.693C48.224 37.6667 47.895 38.1578 48.07 38.6056C48.469 39.6094 49.4 40.2017 50.45 40.4328V40.9167C50.45 41.5161 50.919 42 51.5 42C52.081 42 52.55 41.5161 52.55 40.9167V40.4472C53.915 40.18 55 39.3639 55 37.8833C55 35.8322 53.299 35.1317 51.71 34.7056Z" fill="#3E8CE0" stroke="#3E8CE0"/>
</svg>
