<svg width="50" height="50" viewBox="0 0 50 50" fill="none" xmlns="http://www.w3.org/2000/svg">
<path d="M10.0807 3.90625H0.88715C0.88715 3.90625 -1.04833 27.3438 20.6452 27.3438" fill="white"/>
<path d="M10.0807 3.90625H0.88715C0.88715 3.90625 -1.04833 27.3438 20.6452 27.3438" stroke="#C4C4C4"/>
<path d="M40.4036 3.90625H49.1133C49.1133 3.90625 51.1294 27.3438 30.0811 27.3438" fill="white"/>
<path d="M40.4036 3.90625H49.1133C49.1133 3.90625 51.1294 27.3438 30.0811 27.3438" stroke="#C4C4C4"/>
<path d="M16.2906 43.75V42.1875C16.2906 41.3281 17.0164 40.625 17.9842 40.625L21.2906 39.8438C22.9035 35.9375 23.2261 33.6719 22.9842 30.4688H22.1777C21.21 30.4688 20.4842 29.7656 20.4842 28.8281V26.4062C11.5326 22.6562 9.67773 8.90625 9.67773 0.78125H41.1293C41.1293 8.98438 39.2745 22.7344 30.3229 26.4062V28.8281C30.3229 29.7656 29.5164 30.4688 28.6293 30.4688H27.9842C27.7423 33.6719 27.9842 36.0156 29.5971 39.8438L33.71 40.625C34.5971 40.625 35.4035 41.3281 35.4035 42.1875V43.75" fill="white"/>
<path d="M16.2906 43.75V42.1875C16.2906 41.3281 17.0164 40.625 17.9842 40.625L21.2906 39.8438C22.9035 35.9375 23.2261 33.6719 22.9842 30.4688H22.1777C21.21 30.4688 20.4842 29.7656 20.4842 28.8281V26.4062C11.5326 22.6562 9.67773 8.90625 9.67773 0.78125H41.1293C41.1293 8.98438 39.2745 22.7344 30.3229 26.4062V28.8281C30.3229 29.7656 29.5164 30.4688 28.6293 30.4688H27.9842C27.7423 33.6719 27.9842 36.0156 29.5971 39.8438L33.71 40.625C34.5971 40.625 35.4035 41.3281 35.4035 42.1875V43.75" stroke="#C4C4C4"/>
<path d="M13.5488 4.0625C13.5488 4.0625 13.9521 18.0469 19.1133 21.875Z" fill="white"/>
<path d="M13.5488 4.0625C13.5488 4.0625 13.9521 18.0469 19.1133 21.875" stroke="#C4C4C4"/>
<path d="M32.2582 43.75H37.1775C38.0646 43.75 40.3227 47.6563 40.3227 47.6563C40.3227 48.5156 39.5969 49.2188 38.7904 49.2188H12.9034C12.0163 49.2188 11.3711 48.5156 11.3711 47.6563C11.3711 47.6563 13.6292 43.75 14.5163 43.75H19.4356" fill="white"/>
<path d="M32.2582 43.75H37.1775C38.0646 43.75 40.3227 47.6563 40.3227 47.6563C40.3227 48.5156 39.5969 49.2188 38.7904 49.2188H12.9034C12.0163 49.2188 11.3711 48.5156 11.3711 47.6563C11.3711 47.6563 13.6292 43.75 14.5163 43.75H19.4356" stroke="#C4C4C4"/>
</svg>
