<svg width="210" height="22" viewBox="0 0 210 22" fill="none" xmlns="http://www.w3.org/2000/svg">
<path fill-rule="evenodd" clip-rule="evenodd" d="M200 2C194.48 2 190 6.48 190 12C190 17.52 194.48 22 200 22C205.52 22 210 17.52 210 12C210 6.48 205.52 2 200 2ZM198.8 15.9L203.47 12.4C203.74 12.2 203.74 11.8 203.47 11.6L198.8 8.10001C198.47 7.85001 198 8.09 198 8.5V15.5C198 15.91 198.47 16.15 198.8 15.9ZM192 12C192 16.41 195.59 20 200 20C204.41 20 208 16.41 208 12C208 7.59 204.41 4 200 4C195.59 4 192 7.59 192 12Z" fill="#3E8CE0"/>
<path d="M1.33594 4.08008H5.95898C6.46875 4.08008 6.91406 4.09473 7.29492 4.12402C7.67578 4.14746 8.0332 4.20312 8.36719 4.29102C8.68359 4.37891 8.97949 4.50781 9.25488 4.67773C9.53613 4.8418 9.78223 5.05273 9.99316 5.31055C10.2041 5.5625 10.3682 5.8584 10.4854 6.19824C10.6084 6.53223 10.6699 6.91016 10.6699 7.33203C10.6699 7.55469 10.6406 7.79492 10.582 8.05273C10.5234 8.31055 10.4268 8.56543 10.292 8.81738C10.1572 9.06348 9.97852 9.29492 9.75586 9.51172C9.53906 9.72266 9.26953 9.89551 8.94727 10.0303C9.21094 10.1182 9.48047 10.2412 9.75586 10.3994C10.0312 10.5576 10.2803 10.7627 10.5029 11.0146C10.7314 11.2607 10.9189 11.5625 11.0654 11.9199C11.2119 12.2715 11.2852 12.6934 11.2852 13.1855C11.2852 13.4668 11.25 13.7598 11.1797 14.0645C11.1152 14.3633 11.0068 14.6533 10.8545 14.9346C10.708 15.2158 10.5176 15.4824 10.2832 15.7344C10.0488 15.9863 9.76465 16.2061 9.43066 16.3936C9.09668 16.5811 8.70996 16.7305 8.27051 16.8418C7.83691 16.9473 7.3418 17 6.78516 17H1.33594V4.08008ZM6.53027 15.4883C7.09277 15.4883 7.56445 15.4355 7.94531 15.3301C8.33203 15.2188 8.64258 15.0664 8.87695 14.873C9.11719 14.6738 9.29004 14.4365 9.39551 14.1611C9.50098 13.8857 9.55371 13.5781 9.55371 13.2383C9.55371 12.8984 9.50098 12.5908 9.39551 12.3154C9.29004 12.04 9.11719 11.8057 8.87695 11.6123C8.64258 11.4131 8.33203 11.2607 7.94531 11.1553C7.56445 11.0439 7.09277 10.9883 6.53027 10.9883H3.05859V15.4883H6.53027ZM6.28418 9.58203C6.85254 9.58203 7.30957 9.5293 7.65527 9.42383C8.00684 9.3125 8.27637 9.16602 8.46387 8.98438C8.65723 8.79688 8.78613 8.57715 8.85059 8.3252C8.91504 8.07324 8.94727 7.80371 8.94727 7.5166C8.94727 7.21191 8.90039 6.94238 8.80664 6.70801C8.71875 6.46777 8.56934 6.26563 8.3584 6.10156C8.14746 5.9375 7.87207 5.81152 7.53223 5.72363C7.19238 5.63574 6.77637 5.5918 6.28418 5.5918H3.05859V9.58203H6.28418ZM14.1924 7.58691H15.8096V14.8027H15.8447L20.4678 7.58691H22.3223V17H20.6963V9.78418H20.6611L16.0469 17H14.1924V7.58691ZM33.5527 17H26.2754V19.3027H24.7637V15.5938H26.0029C26.2607 14.9609 26.4658 14.3164 26.6182 13.6602C26.7705 12.998 26.8877 12.333 26.9697 11.665C27.0518 10.9912 27.1045 10.3145 27.1279 9.63477C27.1514 8.95508 27.1631 8.27246 27.1631 7.58691H33.7373V15.5938H35.0645V19.3027H33.5527V17ZM32.1201 15.5938V8.99316H28.71C28.6689 9.52637 28.625 10.0742 28.5781 10.6367C28.5371 11.1992 28.4785 11.7646 28.4023 12.333C28.332 12.8955 28.2354 13.4521 28.1123 14.0029C27.9951 14.5537 27.8398 15.084 27.6465 15.5938H32.1201ZM45.6357 13.9941C45.5713 14.4043 45.4307 14.8057 45.2139 15.1982C44.9971 15.5908 44.7129 15.9424 44.3613 16.2529C44.0098 16.5635 43.5938 16.8125 43.1133 17C42.6387 17.1934 42.1113 17.29 41.5312 17.29C40.8984 17.29 40.3125 17.1875 39.7734 16.9824C39.2402 16.7715 38.7773 16.458 38.3848 16.042C37.998 15.6201 37.6934 15.0928 37.4707 14.46C37.248 13.8271 37.1367 13.083 37.1367 12.2275C37.1367 11.6533 37.1982 11.1348 37.3213 10.6719C37.4502 10.2031 37.6201 9.78711 37.8311 9.42383C38.0479 9.05469 38.2969 8.73828 38.5781 8.47461C38.8594 8.20508 39.1553 7.98535 39.4658 7.81543C39.7822 7.63965 40.1045 7.51074 40.4326 7.42871C40.7607 7.34082 41.0771 7.29688 41.3818 7.29688C42.0264 7.29688 42.6152 7.39355 43.1484 7.58691C43.6816 7.78027 44.1387 8.07617 44.5195 8.47461C44.9062 8.86719 45.2051 9.3623 45.416 9.95996C45.6328 10.5518 45.7412 11.249 45.7412 12.0518V12.8604H38.8594C38.8652 13.3174 38.9297 13.7334 39.0527 14.1084C39.1758 14.4775 39.3516 14.7939 39.5801 15.0576C39.8086 15.3213 40.084 15.5264 40.4062 15.6729C40.7344 15.8135 41.1035 15.8838 41.5137 15.8838C41.9297 15.8838 42.2812 15.8252 42.5684 15.708C42.8555 15.5908 43.0957 15.4414 43.2891 15.2598C43.4824 15.0781 43.6377 14.876 43.7549 14.6533C43.8779 14.4307 43.9805 14.2109 44.0625 13.9941H45.6357ZM44.1152 11.5684C44.1035 11.1113 44.0332 10.7041 43.9043 10.3467C43.7812 9.98926 43.6055 9.69043 43.377 9.4502C43.1543 9.2041 42.8848 9.01953 42.5684 8.89648C42.252 8.76758 41.9004 8.70312 41.5137 8.70312C41.1445 8.70312 40.8047 8.77637 40.4941 8.92285C40.1836 9.06348 39.9111 9.2627 39.6768 9.52051C39.4424 9.77246 39.2549 10.0742 39.1143 10.4258C38.9736 10.7715 38.8887 11.1523 38.8594 11.5684H44.1152ZM55.2139 12.2803C55.2139 11.7588 55.1553 11.2812 55.0381 10.8477C54.9209 10.4082 54.7451 10.0303 54.5107 9.71387C54.2764 9.39746 53.9863 9.15137 53.6406 8.97559C53.3008 8.79395 52.9053 8.70312 52.4541 8.70312C52.0029 8.70312 51.6074 8.79395 51.2676 8.97559C50.9277 9.15137 50.6406 9.39746 50.4062 9.71387C50.1719 10.0303 49.9961 10.4082 49.8789 10.8477C49.7617 11.2812 49.7031 11.7588 49.7031 12.2803C49.7031 12.8076 49.7617 13.2939 49.8789 13.7393C49.9961 14.1787 50.1719 14.5566 50.4062 14.873C50.6406 15.1895 50.9277 15.4385 51.2676 15.6201C51.6074 15.7959 52.0029 15.8838 52.4541 15.8838C52.9053 15.8838 53.3008 15.7959 53.6406 15.6201C53.9863 15.4385 54.2764 15.1895 54.5107 14.873C54.7451 14.5566 54.9209 14.1787 55.0381 13.7393C55.1553 13.2939 55.2139 12.8076 55.2139 12.2803ZM56.8311 12.2803C56.8311 13.0537 56.7314 13.751 56.5322 14.3721C56.333 14.9873 56.0459 15.5117 55.6709 15.9453C55.2959 16.3789 54.8359 16.7129 54.291 16.9473C53.752 17.1758 53.1396 17.29 52.4541 17.29C51.7686 17.29 51.1562 17.1758 50.6172 16.9473C50.0781 16.7129 49.6211 16.3789 49.2461 15.9453C48.8711 15.5117 48.584 14.9873 48.3848 14.3721C48.1855 13.751 48.0859 13.0537 48.0859 12.2803C48.0859 11.5186 48.1855 10.8301 48.3848 10.2148C48.584 9.59961 48.8711 9.0752 49.2461 8.6416C49.6211 8.20801 50.0781 7.87695 50.6172 7.64844C51.1562 7.41406 51.7686 7.29688 52.4541 7.29688C53.1396 7.29688 53.752 7.41406 54.291 7.64844C54.8359 7.87695 55.2959 8.20801 55.6709 8.6416C56.0459 9.0752 56.333 9.59961 56.5322 10.2148C56.7314 10.8301 56.8311 11.5186 56.8311 12.2803ZM71.6807 8.99316H67.2861V17H65.6689V7.58691H73.3066V17H71.6807V8.99316ZM76.6006 7.58691H78.2178V8.87891H78.2529C78.3584 8.66211 78.4902 8.45703 78.6484 8.26367C78.8125 8.07031 79.0059 7.90332 79.2285 7.7627C79.457 7.61621 79.7178 7.50195 80.0107 7.41992C80.3096 7.33789 80.6494 7.29688 81.0303 7.29688C81.5342 7.29688 82.0176 7.39355 82.4805 7.58691C82.9434 7.78027 83.3535 8.07031 83.7109 8.45703C84.0684 8.84375 84.3525 9.33008 84.5635 9.91602C84.7744 10.4961 84.8799 11.1729 84.8799 11.9463C84.8799 12.9131 84.7803 13.7363 84.5811 14.416C84.3877 15.0898 84.1094 15.6406 83.7461 16.0684C83.3887 16.4961 82.9551 16.8066 82.4453 17C81.9355 17.1934 81.3672 17.29 80.7402 17.29C80.4297 17.29 80.1396 17.249 79.8701 17.167C79.6006 17.085 79.3574 16.9795 79.1406 16.8506C78.9297 16.7158 78.748 16.5693 78.5957 16.4111C78.4434 16.2471 78.3291 16.0889 78.2529 15.9365H78.2178V20.709H76.6006V7.58691ZM78.1826 12.3418C78.1826 12.8516 78.2324 13.3232 78.332 13.7568C78.4316 14.1846 78.584 14.5566 78.7891 14.873C79 15.1895 79.2607 15.4385 79.5713 15.6201C79.8877 15.7959 80.2598 15.8838 80.6875 15.8838C81.1328 15.8838 81.5166 15.7959 81.8389 15.6201C82.167 15.4385 82.4365 15.1895 82.6475 14.873C82.8584 14.5566 83.0137 14.1846 83.1133 13.7568C83.2129 13.3232 83.2627 12.8516 83.2627 12.3418C83.2627 11.8086 83.2129 11.3193 83.1133 10.874C83.0137 10.4287 82.8584 10.0449 82.6475 9.72266C82.4365 9.40039 82.167 9.15137 81.8389 8.97559C81.5166 8.79395 81.1328 8.70312 80.6875 8.70312C80.2598 8.70312 79.8877 8.79395 79.5713 8.97559C79.2607 9.15137 79 9.40039 78.7891 9.72266C78.584 10.0449 78.4316 10.4287 78.332 10.874C78.2324 11.3193 78.1826 11.8086 78.1826 12.3418ZM95.7236 13.9941C95.6592 14.4043 95.5186 14.8057 95.3018 15.1982C95.085 15.5908 94.8008 15.9424 94.4492 16.2529C94.0977 16.5635 93.6816 16.8125 93.2012 17C92.7266 17.1934 92.1992 17.29 91.6191 17.29C90.9863 17.29 90.4004 17.1875 89.8613 16.9824C89.3281 16.7715 88.8652 16.458 88.4727 16.042C88.0859 15.6201 87.7812 15.0928 87.5586 14.46C87.3359 13.8271 87.2246 13.083 87.2246 12.2275C87.2246 11.6533 87.2861 11.1348 87.4092 10.6719C87.5381 10.2031 87.708 9.78711 87.9189 9.42383C88.1357 9.05469 88.3848 8.73828 88.666 8.47461C88.9473 8.20508 89.2432 7.98535 89.5537 7.81543C89.8701 7.63965 90.1924 7.51074 90.5205 7.42871C90.8486 7.34082 91.165 7.29688 91.4697 7.29688C92.1143 7.29688 92.7031 7.39355 93.2363 7.58691C93.7695 7.78027 94.2266 8.07617 94.6074 8.47461C94.9941 8.86719 95.293 9.3623 95.5039 9.95996C95.7207 10.5518 95.8291 11.249 95.8291 12.0518V12.8604H88.9473C88.9531 13.3174 89.0176 13.7334 89.1406 14.1084C89.2637 14.4775 89.4395 14.7939 89.668 15.0576C89.8965 15.3213 90.1719 15.5264 90.4941 15.6729C90.8223 15.8135 91.1914 15.8838 91.6016 15.8838C92.0176 15.8838 92.3691 15.8252 92.6562 15.708C92.9434 15.5908 93.1836 15.4414 93.377 15.2598C93.5703 15.0781 93.7256 14.876 93.8428 14.6533C93.9658 14.4307 94.0684 14.2109 94.1504 13.9941H95.7236ZM94.2031 11.5684C94.1914 11.1113 94.1211 10.7041 93.9922 10.3467C93.8691 9.98926 93.6934 9.69043 93.4648 9.4502C93.2422 9.2041 92.9727 9.01953 92.6562 8.89648C92.3398 8.76758 91.9883 8.70312 91.6016 8.70312C91.2324 8.70312 90.8926 8.77637 90.582 8.92285C90.2715 9.06348 89.999 9.2627 89.7646 9.52051C89.5303 9.77246 89.3428 10.0742 89.2021 10.4258C89.0615 10.7715 88.9766 11.1523 88.9473 11.5684H94.2031ZM101.162 11.5596H101.979C102.196 11.5596 102.422 11.5332 102.656 11.4805C102.891 11.4277 103.104 11.3457 103.298 11.2344C103.491 11.1172 103.649 10.9678 103.772 10.7861C103.901 10.6045 103.966 10.3848 103.966 10.127C103.966 9.93945 103.925 9.76074 103.843 9.59082C103.767 9.41504 103.649 9.2627 103.491 9.13379C103.339 8.99902 103.146 8.89355 102.911 8.81738C102.677 8.74121 102.404 8.70312 102.094 8.70312C101.93 8.70312 101.736 8.72656 101.514 8.77344C101.291 8.82031 101.071 8.9082 100.854 9.03711C100.644 9.16016 100.453 9.33887 100.283 9.57324C100.119 9.80176 100.014 10.1006 99.9668 10.4697H98.4551C98.4961 10.0479 98.5811 9.67871 98.71 9.3623C98.8389 9.04004 99 8.76172 99.1934 8.52734C99.3867 8.29297 99.6035 8.09668 99.8438 7.93848C100.09 7.78027 100.342 7.6543 100.6 7.56055C100.863 7.4668 101.127 7.39941 101.391 7.3584C101.654 7.31738 101.906 7.29688 102.146 7.29688C102.568 7.29688 102.984 7.35254 103.395 7.46387C103.805 7.56934 104.171 7.7334 104.493 7.95605C104.821 8.17285 105.085 8.44824 105.284 8.78223C105.483 9.11621 105.583 9.50586 105.583 9.95117C105.583 10.2383 105.542 10.4932 105.46 10.7158C105.378 10.9326 105.27 11.123 105.135 11.2871C105.006 11.4512 104.859 11.5918 104.695 11.709C104.531 11.8203 104.37 11.9141 104.212 11.9902V12.0342C104.376 12.0635 104.558 12.125 104.757 12.2188C104.956 12.3066 105.141 12.4355 105.311 12.6055C105.48 12.7695 105.621 12.9834 105.732 13.2471C105.85 13.5049 105.908 13.8213 105.908 14.1963C105.908 14.7236 105.794 15.1807 105.565 15.5674C105.343 15.9541 105.05 16.2764 104.687 16.5342C104.323 16.7861 103.913 16.9736 103.456 17.0967C102.999 17.2256 102.539 17.29 102.076 17.29C101.479 17.29 100.937 17.2139 100.45 17.0615C99.9697 16.9092 99.5537 16.6924 99.2021 16.4111C98.8506 16.1299 98.5693 15.793 98.3584 15.4004C98.1533 15.0078 98.0303 14.5742 97.9893 14.0996H99.6152C99.6562 14.4453 99.7559 14.7324 99.9141 14.9609C100.072 15.1895 100.263 15.3711 100.485 15.5059C100.708 15.6406 100.954 15.7373 101.224 15.7959C101.499 15.8545 101.777 15.8838 102.059 15.8838C102.803 15.8838 103.359 15.7344 103.729 15.4355C104.104 15.1367 104.291 14.7354 104.291 14.2314C104.291 14.0146 104.256 13.8213 104.186 13.6514C104.121 13.4814 104.01 13.3379 103.852 13.2207C103.693 13.0977 103.482 13.0068 103.219 12.9482C102.961 12.8838 102.639 12.8516 102.252 12.8516C102.176 12.8516 102.088 12.8545 101.988 12.8604C101.895 12.8604 101.798 12.8633 101.698 12.8691C101.604 12.875 101.511 12.8838 101.417 12.8955C101.323 12.9014 101.238 12.9072 101.162 12.9131V11.5596ZM116.743 13.9941C116.679 14.4043 116.538 14.8057 116.321 15.1982C116.104 15.5908 115.82 15.9424 115.469 16.2529C115.117 16.5635 114.701 16.8125 114.221 17C113.746 17.1934 113.219 17.29 112.639 17.29C112.006 17.29 111.42 17.1875 110.881 16.9824C110.348 16.7715 109.885 16.458 109.492 16.042C109.105 15.6201 108.801 15.0928 108.578 14.46C108.355 13.8271 108.244 13.083 108.244 12.2275C108.244 11.6533 108.306 11.1348 108.429 10.6719C108.558 10.2031 108.728 9.78711 108.938 9.42383C109.155 9.05469 109.404 8.73828 109.686 8.47461C109.967 8.20508 110.263 7.98535 110.573 7.81543C110.89 7.63965 111.212 7.51074 111.54 7.42871C111.868 7.34082 112.185 7.29688 112.489 7.29688C113.134 7.29688 113.723 7.39355 114.256 7.58691C114.789 7.78027 115.246 8.07617 115.627 8.47461C116.014 8.86719 116.312 9.3623 116.523 9.95996C116.74 10.5518 116.849 11.249 116.849 12.0518V12.8604H109.967C109.973 13.3174 110.037 13.7334 110.16 14.1084C110.283 14.4775 110.459 14.7939 110.688 15.0576C110.916 15.3213 111.191 15.5264 111.514 15.6729C111.842 15.8135 112.211 15.8838 112.621 15.8838C113.037 15.8838 113.389 15.8252 113.676 15.708C113.963 15.5908 114.203 15.4414 114.396 15.2598C114.59 15.0781 114.745 14.876 114.862 14.6533C114.985 14.4307 115.088 14.2109 115.17 13.9941H116.743ZM115.223 11.5684C115.211 11.1113 115.141 10.7041 115.012 10.3467C114.889 9.98926 114.713 9.69043 114.484 9.4502C114.262 9.2041 113.992 9.01953 113.676 8.89648C113.359 8.76758 113.008 8.70312 112.621 8.70312C112.252 8.70312 111.912 8.77637 111.602 8.92285C111.291 9.06348 111.019 9.2627 110.784 9.52051C110.55 9.77246 110.362 10.0742 110.222 10.4258C110.081 10.7715 109.996 11.1523 109.967 11.5684H115.223ZM119.747 7.58691H121.364V11.3838H125.759V7.58691H127.385V17H125.759V12.79H121.364V17H119.747V7.58691ZM133.271 8.99316H130.028V7.58691H138.132V8.99316H134.889V17H133.271V8.99316ZM140.749 10.4082C140.767 9.83398 140.875 9.35059 141.074 8.95801C141.273 8.55957 141.543 8.2373 141.883 7.99121C142.223 7.74512 142.624 7.56934 143.087 7.46387C143.556 7.35254 144.065 7.29688 144.616 7.29688C145.073 7.29688 145.516 7.34375 145.943 7.4375C146.377 7.53125 146.761 7.68359 147.095 7.89453C147.429 8.09961 147.695 8.36914 147.895 8.70312C148.1 9.03125 148.202 9.43262 148.202 9.90723V15.3828C148.202 15.5352 148.243 15.667 148.325 15.7783C148.407 15.8838 148.539 15.9365 148.721 15.9365C148.803 15.9365 148.888 15.9307 148.976 15.9189C149.063 15.9014 149.154 15.8838 149.248 15.8662V16.9824C149.113 17.0176 148.979 17.0498 148.844 17.0791C148.715 17.1084 148.56 17.123 148.378 17.123C148.097 17.123 147.854 17.0996 147.648 17.0527C147.449 17.0059 147.279 16.9297 147.139 16.8242C147.004 16.7129 146.898 16.5723 146.822 16.4023C146.746 16.2266 146.696 16.0127 146.673 15.7607C146.474 15.9775 146.263 16.1797 146.04 16.3672C145.817 16.5488 145.568 16.71 145.293 16.8506C145.018 16.9854 144.71 17.0908 144.37 17.167C144.03 17.249 143.646 17.29 143.219 17.29C142.855 17.29 142.501 17.2314 142.155 17.1143C141.815 16.9971 141.508 16.8242 141.232 16.5957C140.963 16.3672 140.746 16.0859 140.582 15.752C140.418 15.4121 140.336 15.0195 140.336 14.5742C140.336 14.0879 140.418 13.6689 140.582 13.3174C140.746 12.96 140.96 12.6641 141.224 12.4297C141.487 12.1895 141.789 12.0049 142.129 11.876C142.469 11.7471 142.814 11.6621 143.166 11.6211L145.812 11.2959C146.063 11.2666 146.26 11.1699 146.4 11.0059C146.547 10.8359 146.62 10.5664 146.62 10.1973C146.62 9.62891 146.433 9.22168 146.058 8.97559C145.688 8.72363 145.155 8.59766 144.458 8.59766C143.743 8.59766 143.21 8.75 142.858 9.05469C142.507 9.35352 142.308 9.80469 142.261 10.4082H140.749ZM146.585 12.21C146.456 12.3037 146.295 12.3828 146.102 12.4473C145.914 12.5059 145.706 12.5557 145.478 12.5967C145.249 12.6377 145.006 12.6758 144.748 12.7109C144.49 12.7402 144.232 12.7725 143.975 12.8076C143.682 12.8486 143.412 12.9072 143.166 12.9834C142.92 13.0596 142.706 13.1592 142.524 13.2822C142.343 13.4053 142.202 13.5547 142.103 13.7305C142.003 13.9004 141.953 14.1025 141.953 14.3369C141.953 14.6064 141.994 14.8438 142.076 15.0488C142.164 15.2539 142.281 15.4268 142.428 15.5674C142.58 15.708 142.762 15.8135 142.973 15.8838C143.184 15.9541 143.415 15.9893 143.667 15.9893C143.825 15.9893 144.007 15.9717 144.212 15.9365C144.417 15.8955 144.628 15.8369 144.845 15.7607C145.062 15.6846 145.272 15.5879 145.478 15.4707C145.688 15.3477 145.876 15.2012 146.04 15.0312C146.204 14.8613 146.336 14.668 146.436 14.4512C146.535 14.2344 146.585 13.9912 146.585 13.7217V12.21ZM151.786 7.58691H153.403V15.5938H157.798V7.58691H159.424V15.5938H160.584V19.3027H159.072V17H151.786V7.58691ZM163.069 7.58691H164.687V14.8027H164.722L169.345 7.58691H171.199V17H169.573V9.78418H169.538L164.924 17H163.069V7.58691ZM182.236 17H180.61V13.2734H178.527C178.152 13.2734 177.824 13.2822 177.543 13.2998C177.268 13.3115 177.033 13.3643 176.84 13.458C176.646 13.5518 176.494 13.6982 176.383 13.8975C176.277 14.0967 176.21 14.3809 176.181 14.75L176.11 15.7607C176.104 15.79 176.099 15.8486 176.093 15.9365C176.087 16.0244 176.075 16.1299 176.058 16.2529C176.04 16.3701 176.017 16.4961 175.987 16.6309C175.958 16.7656 175.923 16.8887 175.882 17H174.098C174.139 16.9473 174.177 16.8945 174.212 16.8418C174.253 16.7832 174.291 16.7041 174.326 16.6045C174.367 16.5049 174.402 16.376 174.432 16.2178C174.467 16.0596 174.499 15.8574 174.528 15.6113L174.634 14.4072C174.669 14.0908 174.71 13.833 174.757 13.6338C174.81 13.4346 174.88 13.2705 174.968 13.1416C175.062 13.0068 175.182 12.8984 175.328 12.8164C175.475 12.7285 175.659 12.6406 175.882 12.5527C174.874 12.1895 174.37 11.4453 174.37 10.3203C174.37 10.0391 174.405 9.78125 174.476 9.54688C174.546 9.30664 174.637 9.09277 174.748 8.90527C174.865 8.71777 174.994 8.55371 175.135 8.41309C175.281 8.2666 175.428 8.14648 175.574 8.05273C175.756 7.93555 175.955 7.84766 176.172 7.78906C176.389 7.72461 176.605 7.67773 176.822 7.64844C177.045 7.61914 177.262 7.60156 177.473 7.5957C177.684 7.58984 177.877 7.58691 178.053 7.58691H182.236V17ZM180.61 9.01074H178.149C177.938 9.01074 177.757 9.01367 177.604 9.01953C177.452 9.01953 177.317 9.02539 177.2 9.03711C177.089 9.04883 176.986 9.06934 176.893 9.09863C176.799 9.12793 176.702 9.16895 176.603 9.22168C176.397 9.33887 176.239 9.51172 176.128 9.74023C176.022 9.96875 175.97 10.2119 175.97 10.4697C175.97 10.7217 176.008 10.9355 176.084 11.1113C176.16 11.2812 176.26 11.4219 176.383 11.5332C176.512 11.6445 176.652 11.7324 176.805 11.7969C176.963 11.8555 177.121 11.8994 177.279 11.9287C177.443 11.9521 177.602 11.9668 177.754 11.9727C177.906 11.9785 178.038 11.9814 178.149 11.9814H180.61V9.01074Z" fill="#3E8CE0"/>
</svg>
