<svg width="28" height="28" viewBox="0 0 28 28" fill="none" xmlns="http://www.w3.org/2000/svg">
<path d="M23.8066 6.92334L23.8066 6.92338C24.0664 7.18311 24.0664 7.60145 23.8066 7.86116L23.8066 7.86122L22.0253 9.64266L18.3574 5.97476L20.1387 4.1933L20.139 4.19299C20.2633 4.06846 20.4319 3.99854 20.6078 3.99854C20.7835 3.99854 20.952 4.06846 21.0762 4.1929L21.0766 4.19331L23.8066 6.92334ZM4.0269 20.3052L4.02708 20.305L16.4018 7.93021L20.0695 11.5979L7.68349 23.9728L7.67422 23.982L7.66544 23.9918L7.66406 23.9929C7.663 23.9937 7.66099 23.9949 7.65781 23.9962C7.65102 23.999 7.64082 24.0015 7.62855 24.0015H4.08187C4.05272 24.0015 4.03362 23.9911 4.02128 23.9788C4.00893 23.9664 3.99854 23.9473 3.99854 23.9182V20.3715C3.99854 20.3421 4.00323 20.3289 4.0269 20.3052Z" fill="#8D8D8D" stroke="#8D8D8D"/>
</svg>
