<svg width="22" height="22" viewBox="0 0 22 22" fill="none" xmlns="http://www.w3.org/2000/svg">
<path fill-rule="evenodd" clip-rule="evenodd" d="M0 11C0 4.92683 4.92686 0 11 0C17.0731 0 22 4.92683 22 11C22 17.0731 17.0731 21.9999 11 21.9999C4.92686 21.9999 0 17.0731 0 11ZM10.4269 12.9178V17.4809C10.4269 18.0651 11.2094 18.2524 11.4739 17.7234L15.3978 9.8757C15.5741 9.51197 15.3096 9.08214 14.9018 9.08214H12.1022V4.46391C12.1022 3.87974 11.3196 3.69239 11.0661 4.21042L7.01003 12.1132C6.81163 12.4769 7.08719 12.9178 7.495 12.9178H10.4269Z" fill="#56CCF2"/>
</svg>
