<svg width="22" height="22" viewBox="0 0 22 22" fill="none" xmlns="http://www.w3.org/2000/svg">
<circle cx="11" cy="11" r="11" fill="#F2C94C"/>
<g clip-path="url(#clip0)">
<path d="M8.14185 9.55645H5.35445C5.21157 9.55645 5.08269 9.47065 5.02756 9.33883C4.97246 9.20702 5.00185 9.05501 5.10219 8.95331L7.92501 6.09126C7.99159 6.02373 8.08246 5.98574 8.17729 5.98574H9.57098C9.69374 5.98574 9.80777 6.04928 9.87234 6.15372C9.93691 6.25813 9.94281 6.38852 9.88797 6.49837L8.45884 9.36042C8.39887 9.48056 8.27612 9.55645 8.14185 9.55645Z" fill="#EFFCFF"/>
<path d="M16.6457 9.55645H13.8583C13.724 9.55645 13.6013 9.48056 13.5413 9.36042L12.1121 6.49837C12.0573 6.38852 12.0632 6.25813 12.1278 6.15372C12.1923 6.0493 12.3064 5.98574 12.4291 5.98574H13.8228C13.9177 5.98574 14.0085 6.02376 14.0751 6.09126L16.898 8.95331C16.9983 9.05503 17.0277 9.20707 16.9726 9.33883C16.9175 9.47067 16.7886 9.55645 16.6457 9.55645Z" fill="#EFF3F5"/>
<path d="M7.74548 9.19291L9.57082 5.98574H12.4291L14.2488 9.19291H7.74548Z" fill="#FCFEFF"/>
<path d="M13.4749 9.19291L10.676 15.5165C10.6051 15.6766 10.6618 15.8645 10.8095 15.9587C10.8683 15.9961 10.9343 16.0142 10.9998 16.0142C11.0992 16.0142 11.1973 15.9725 11.2668 15.8931L16.9124 9.43532C16.9721 9.36707 17.0019 9.28019 16.9997 9.19289H13.4749V9.19291Z" fill="#DEE1E2"/>
<path d="M8.52516 9.1929H5.00036C4.99811 9.28018 5.02793 9.36709 5.0876 9.43534L10.7333 15.8931C10.8027 15.9726 10.9009 16.0143 11.0002 16.0143C11.0657 16.0143 11.1318 15.9961 11.1905 15.9587C11.3381 15.8646 11.3949 15.6766 11.324 15.5165L8.52516 9.1929Z" fill="#FBFEFF"/>
<path d="M7.74548 9.1929L10.676 15.8033C10.7327 15.9315 10.8597 16.0142 11 16.0142C11.1402 16.0142 11.2672 15.9315 11.324 15.8033L14.2489 9.1929H7.74548Z" fill="#EFFBFE"/>
<path d="M10.9972 9.19291H14.2489L12.4291 5.98574H10.9972V9.19291Z" fill="#F2FBFF"/>
<path d="M11 16.0142C11.1402 16.0142 11.2673 15.9315 11.324 15.8033L14.2489 9.1929H11V16.0142Z" fill="#EDF0F1"/>
</g>
<defs>
<clipPath id="clip0">
<rect width="12" height="12" fill="white" transform="translate(5 5)"/>
</clipPath>
</defs>
</svg>
