<svg width="22" height="22" viewBox="0 0 22 22" fill="none" xmlns="http://www.w3.org/2000/svg">
<circle cx="11" cy="11" r="11" fill="white"/>
<g clip-path="url(#clip0)">
<path d="M8.14173 9.55646H5.35432C5.21145 9.55646 5.08257 9.47065 5.02744 9.33884C4.97234 9.20703 5.00173 9.05501 5.10207 8.95332L7.92488 6.09126C7.99147 6.02374 8.08234 5.98575 8.17716 5.98575H9.57085C9.69362 5.98575 9.80764 6.04929 9.87221 6.15373C9.93679 6.25814 9.94269 6.38852 9.88785 6.49837L8.45872 9.36043C8.39874 9.48057 8.276 9.55646 8.14173 9.55646Z" fill="#A0EBFF"/>
<path d="M16.6457 9.55646H13.8583C13.724 9.55646 13.6013 9.48057 13.5413 9.36043L12.1121 6.49837C12.0573 6.38852 12.0632 6.25814 12.1278 6.15373C12.1923 6.04931 12.3064 5.98575 12.4291 5.98575H13.8228C13.9177 5.98575 14.0085 6.02376 14.0751 6.09126L16.898 8.95332C16.9983 9.05504 17.0277 9.20707 16.9726 9.33884C16.9175 9.47068 16.7886 9.55646 16.6457 9.55646Z" fill="#73C8F0"/>
<path d="M7.74561 9.19292L9.57094 5.98575H12.4292L14.249 9.19292H7.74561Z" fill="#D2F0FF"/>
<path d="M13.4749 9.19291L10.676 15.5165C10.6051 15.6766 10.6618 15.8645 10.8095 15.9587C10.8683 15.9961 10.9343 16.0142 10.9998 16.0142C11.0992 16.0142 11.1973 15.9725 11.2668 15.8931L16.9124 9.43532C16.9721 9.36707 17.0019 9.28019 16.9997 9.19289H13.4749V9.19291Z" fill="#0073AA"/>
<path d="M8.52516 9.19291H5.00036C4.99811 9.28019 5.02793 9.3671 5.0876 9.43535L10.7333 15.8931C10.8027 15.9726 10.9009 16.0143 11.0002 16.0143C11.0657 16.0143 11.1318 15.9961 11.1905 15.9587C11.3381 15.8646 11.3949 15.6766 11.324 15.5165L8.52516 9.19291Z" fill="#41B4E6"/>
<path d="M7.74561 9.19291L10.6761 15.8033C10.7328 15.9316 10.8599 16.0142 11.0001 16.0142C11.1403 16.0142 11.2674 15.9316 11.3241 15.8033L14.249 9.19291H7.74561Z" fill="#A0EBFF"/>
<path d="M10.9972 9.19292H14.2489L12.4291 5.98575H10.9972V9.19292Z" fill="#41B4E6"/>
<path d="M11 16.0142C11.1402 16.0142 11.2673 15.9316 11.324 15.8033L14.2489 9.19291H11V16.0142Z" fill="#73C8F0"/>
</g>
<defs>
<clipPath id="clip0">
<rect width="12" height="12" fill="white" transform="translate(5 5)"/>
</clipPath>
</defs>
</svg>
