<svg width="22" height="22" viewBox="0 0 22 22" fill="none" xmlns="http://www.w3.org/2000/svg">
<g clip-path="url(#clip0)">
<path d="M21.5491 0.00277459C17.2545 -0.0742254 12.3567 2.17069 9.25657 5.65311C6.2939 5.70902 3.40915 6.92361 1.28524 9.04752C1.16149 9.16944 1.11749 9.35186 1.17157 9.51686C1.22657 9.68277 1.36957 9.80286 1.5419 9.82761L5.07474 10.3336L4.6384 10.8222C4.47615 11.0037 4.4844 11.2796 4.65674 11.4519L10.5482 17.3434C10.6371 17.4323 10.7544 17.4772 10.8727 17.4772C10.9817 17.4772 11.0908 17.4387 11.1779 17.3608L11.6665 16.9244L12.1725 20.4573C12.1972 20.6296 12.3329 20.7561 12.497 20.8111C12.5392 20.8249 12.5832 20.8313 12.6281 20.8313C12.7582 20.8313 12.8912 20.7744 12.9828 20.6837C15.0774 18.5891 16.292 15.7044 16.3479 12.7417C19.834 9.63511 22.0972 4.73919 21.9973 0.450108C21.9909 0.206275 21.7938 0.00919125 21.5491 0.00277459V0.00277459ZM17.3251 7.91544C16.8787 8.36186 16.292 8.58552 15.7044 8.58552C15.1168 8.58552 14.5302 8.36186 14.0837 7.91544C13.1909 7.02169 13.1909 5.56786 14.0837 4.67411C14.9775 3.78036 16.4313 3.78036 17.3251 4.67411C18.2188 5.56786 18.2188 7.02261 17.3251 7.91544Z" fill="url(#paint0_linear)"/>
<path d="M2.49693 15.4962C1.5161 16.4771 0.169514 20.9082 0.0191805 21.4097C-0.0294028 21.571 0.0155139 21.7461 0.133764 21.8652C0.221764 21.9532 0.338181 22 0.458264 22C0.502264 22 0.546264 21.9936 0.590264 21.9807C1.09168 21.8304 5.52285 20.4838 6.50368 19.503C7.60826 18.3984 7.60826 16.6008 6.50368 15.4962C5.39818 14.3917 3.60151 14.3926 2.49693 15.4962V15.4962Z" fill="#8B61F6"/>
</g>
<defs>
<linearGradient id="paint0_linear" x1="11.5747" y1="0.000854492" x2="11.5747" y2="20.8313" gradientUnits="userSpaceOnUse">
<stop stop-color="#B185F8" stop-opacity="0.8"/>
<stop offset="1" stop-color="#956BF7"/>
</linearGradient>
<clipPath id="clip0">
<rect width="22" height="22" fill="white"/>
</clipPath>
</defs>
</svg>
