<svg width="22" height="22" viewBox="0 0 22 22" fill="none" xmlns="http://www.w3.org/2000/svg">
<g clip-path="url(#clip0)">
<path d="M21.5491 0.00274407C17.2545 -0.0742559 12.3567 2.17066 9.25657 5.65308C6.2939 5.70899 3.40915 6.92358 1.28524 9.04749C1.16149 9.16941 1.11749 9.35183 1.17157 9.51683C1.22657 9.68274 1.36957 9.80283 1.5419 9.82758L5.07474 10.3336L4.6384 10.8222C4.47615 11.0037 4.4844 11.2796 4.65674 11.4519L10.5482 17.3433C10.6371 17.4322 10.7544 17.4772 10.8727 17.4772C10.9817 17.4772 11.0908 17.4387 11.1779 17.3607L11.6665 16.9244L12.1725 20.4572C12.1972 20.6296 12.3329 20.7561 12.497 20.8111C12.5392 20.8248 12.5832 20.8312 12.6281 20.8312C12.7582 20.8312 12.8912 20.7744 12.9828 20.6837C15.0774 18.5891 16.292 15.7043 16.3479 12.7417C19.834 9.63508 22.0972 4.73916 21.9973 0.450077C21.9909 0.206244 21.7938 0.00916073 21.5491 0.00274407V0.00274407ZM17.3251 7.91541C16.8787 8.36183 16.292 8.58549 15.7044 8.58549C15.1168 8.58549 14.5302 8.36183 14.0837 7.91541C13.1909 7.02166 13.1909 5.56783 14.0837 4.67408C14.9775 3.78033 16.4313 3.78033 17.3251 4.67408C18.2188 5.56783 18.2188 7.02258 17.3251 7.91541Z" fill="white"/>
<path d="M2.49693 15.4962C1.5161 16.477 0.169514 20.9082 0.0191805 21.4096C-0.0294028 21.571 0.0155139 21.746 0.133764 21.8652C0.221764 21.9532 0.338181 22 0.458264 22C0.502264 22 0.546264 21.9935 0.590264 21.9807C1.09168 21.8304 5.52285 20.4838 6.50368 19.503C7.60826 18.3984 7.60826 16.6008 6.50368 15.4962C5.39818 14.3916 3.60151 14.3925 2.49693 15.4962V15.4962Z" fill="white"/>
</g>
<defs>
<clipPath id="clip0">
<rect width="22" height="22" fill="white"/>
</clipPath>
</defs>
</svg>
