<svg width="22" height="22" viewBox="0 0 22 22" fill="none" xmlns="http://www.w3.org/2000/svg">
<path d="M7.53717 4.06778L6.35797 3.75978L4.14037 2.51018L6.73637 1.56198H15.2328L17.8156 2.64878L15.3384 3.85438L14.5024 4.05678H7.53717V4.06778ZM16.841 8.01018L15.4792 5.17658L18.5878 3.42978L21.274 5.71118L16.841 8.01018ZM16.9466 9.36538L21.78 6.83978L11.6006 20.2884L16.9466 9.36538ZM0.219971 7.06418L5.38337 9.38738L10.934 20.3522L0.219971 7.06418ZM5.66497 8.03218L0.219971 5.73098L3.14597 3.53538L6.63957 5.35918L5.66497 8.03218ZM7.63617 5.42298L14.5266 5.48678L15.7476 8.18178L6.80897 8.11798L7.63617 5.42298ZM6.59777 9.42918L15.642 9.38738L11.297 20.4358L6.59777 9.42918Z" fill="white"/>
</svg>
