<svg width="22" height="22" viewBox="0 0 22 22" fill="none" xmlns="http://www.w3.org/2000/svg">
<path d="M0.0403193 9.8042C0.122114 9.97555 0.312983 10.0874 0.524792 10.0874H6.2703L6.2703 21.5418C6.2703 21.7948 6.50521 22 6.79463 22L15.1838 22C15.4732 22 15.7081 21.7948 15.7081 21.5418L15.7081 10.0873H21.4757C21.6875 10.0873 21.8783 9.9755 21.9601 9.80506C22.0409 9.63372 21.9969 9.43668 21.8469 9.30563L11.3867 0.134692C11.2881 0.0485685 11.1549 -1.23145e-05 11.0154 -1.23145e-05C10.876 -1.23145e-05 10.7428 0.0485687 10.6442 0.13379L0.153572 9.30473C0.00359966 9.43582 -0.0414749 9.63281 0.0403193 9.8042Z" fill="url(#paint0_linear)"/>
<defs>
<linearGradient id="paint0_linear" x1="11" y1="22" x2="11" y2="-1.14441e-05" gradientUnits="userSpaceOnUse">
<stop stop-color="#4BACDA"/>
<stop offset="1" stop-color="#58C9EF"/>
</linearGradient>
</defs>
</svg>
