<svg width="22" height="23" viewBox="0 0 22 23" fill="none" xmlns="http://www.w3.org/2000/svg">
<path d="M17.8 21.2527C17.8 21.6794 17.5177 22.0255 17.1695 22.0255H4.72753C4.37932 22.0255 4.09702 21.6794 4.09702 21.2527V19.604C4.09702 19.1772 4.37932 18.8312 4.72753 18.8312H17.1695C17.5177 18.8312 17.8 19.1772 17.8 19.604V21.2527ZM22 6.58382C22 5.74013 21.4401 5.05389 20.7518 5.05389C20.0634 5.05389 19.5036 5.74013 19.5036 6.58382C19.5036 6.85863 19.5638 7.11602 19.6677 7.3391L17.8 9.18686L16 10.0702H14.0973L12.5 8.57402L11.9587 4.82762C12.6299 4.4069 13.0909 3.55106 13.0909 2.56528C13.0909 1.16476 12.1612 0.0254517 11.0186 0.0254517C9.87606 0.0254517 8.94645 1.16486 8.94645 2.56528C8.94645 3.55106 9.4073 4.4068 10.0786 4.82762L9.5 8.57402L7.93999 10.0702H6L4.12502 9.18686L2.33959 7.32447C2.43921 7.10479 2.49638 6.85245 2.49638 6.58382C2.49638 5.74013 1.93649 5.05389 1.24815 5.05389C0.559804 5.05389 0 5.74013 0 6.58382C0 7.20371 0.302811 7.73756 0.736262 7.97764L3.54033 16.4929C3.63658 16.7853 3.86785 16.9765 4.12502 16.9765H17.9961C18.2556 16.9765 18.4886 16.7816 18.5832 16.4854L21.3099 7.95023C21.7185 7.69861 22 7.18135 22 6.58382Z" fill="url(#paint0_linear)"/>
<defs>
<linearGradient id="paint0_linear" x1="22" y1="1.83278" x2="7.69097" y2="19.3174" gradientUnits="userSpaceOnUse">
<stop stop-color="#F3B885"/>
<stop offset="0.675439" stop-color="#F19452"/>
<stop offset="1" stop-color="#F08B45"/>
</linearGradient>
</defs>
</svg>
