<svg width="32" height="32" viewBox="0 0 32 32" fill="none" xmlns="http://www.w3.org/2000/svg">
<path d="M16.8387 31.3931C17.9511 27.9961 19.8485 24.9088 22.3773 22.3814C24.906 19.8541 27.9949 17.9579 31.3935 16.8464C31.5704 16.7863 31.724 16.6723 31.8327 16.5205C31.9415 16.3687 32 16.1867 32 16C32 15.8133 31.9415 15.6313 31.8327 15.4795C31.724 15.3277 31.5704 15.2137 31.3935 15.1536C27.9949 14.0421 24.906 12.1459 22.3773 9.61857C19.8485 7.09124 17.9511 4.00393 16.8387 0.606855C16.7788 0.429954 16.665 0.276264 16.5132 0.167406C16.3614 0.0585474 16.1792 0 15.9924 0C15.8056 0 15.6235 0.0585474 15.4717 0.167406C15.3199 0.276264 15.206 0.429954 15.1462 0.606855C14.0353 4.00229 12.1401 7.08853 9.61412 9.61574C7.08814 12.1429 4.00231 14.0401 0.606463 15.1536C0.429609 15.2137 0.276022 15.3277 0.167255 15.4795C0.0584876 15.6313 0 15.8133 0 16C0 16.1867 0.0584876 16.3687 0.167255 16.5205C0.276022 16.6723 0.429609 16.7863 0.606463 16.8464C4.00325 17.9592 7.09009 19.8561 9.61699 22.3833C12.1439 24.9106 14.0398 27.9972 15.1512 31.3931C15.2122 31.5683 15.3262 31.7201 15.4774 31.8275C15.6286 31.9349 15.8094 31.9926 15.9949 31.9926C16.1804 31.9926 16.3613 31.9349 16.5125 31.8275C16.6637 31.7201 16.7777 31.5683 16.8387 31.3931V31.3931Z" fill="url(#paint0_radial)"/>
<path opacity="0.8" d="M0.606482 16.8464C4.00327 17.9592 7.09011 19.8561 9.61701 22.3833C12.1439 24.9106 14.0398 27.9972 15.1512 31.3932C15.2111 31.5701 15.3249 31.7237 15.4767 31.8326C15.6285 31.9415 15.8107 32 15.9975 32C16.1843 32 16.3664 31.9415 16.5182 31.8326C16.67 31.7237 16.7839 31.5701 16.8437 31.3932C17.9556 27.9966 19.8523 24.9097 22.3802 22.3824C24.908 19.8551 27.9958 17.9586 31.3936 16.8464C28.1271 17.9115 22.6059 18.7619 16.001 18.7619C9.39715 18.7619 3.87196 17.9115 0.605469 16.8464H0.606482Z" fill="url(#paint1_radial)"/>
<defs>
<radialGradient id="paint0_radial" cx="0" cy="0" r="1" gradientUnits="userSpaceOnUse" gradientTransform="translate(31.0954 -0.682742) scale(35.6822 35.6676)">
<stop stop-color="#00FFFE"/>
<stop offset="0.2281" stop-color="#00FFFE"/>
<stop offset="0.30467" stop-color="#11F3FE"/>
<stop offset="0.45691" stop-color="#3ED3FE"/>
<stop offset="0.67056" stop-color="#87A0FF"/>
<stop offset="0.93521" stop-color="#E95AFF"/>
<stop offset="0.95314" stop-color="#F055FF"/>
<stop offset="1" stop-color="#F055FF"/>
</radialGradient>
<radialGradient id="paint1_radial" cx="0" cy="0" r="1" gradientUnits="userSpaceOnUse" gradientTransform="translate(13.6451 18.1284) scale(20.1659 20.1561)">
<stop stop-color="#053BF2"/>
<stop offset="0.08886" stop-color="#0F3CF3" stop-opacity="0.958"/>
<stop offset="0.24144" stop-color="#2A3FF4" stop-opacity="0.844"/>
<stop offset="0.43934" stop-color="#5544F6" stop-opacity="0.658"/>
<stop offset="0.67492" stop-color="#924BFA" stop-opacity="0.402"/>
<stop offset="0.93951" stop-color="#DE53FE" stop-opacity="0.078"/>
<stop offset="1" stop-color="#F055FF" stop-opacity="0"/>
</radialGradient>
</defs>
</svg>
