<svg width="22" height="23" viewBox="0 0 22 23" fill="none" xmlns="http://www.w3.org/2000/svg">
<path d="M17.8 21.2526C17.8 21.6794 17.5177 22.0254 17.1695 22.0254H4.72753C4.37932 22.0254 4.09702 21.6794 4.09702 21.2526V19.604C4.09702 19.1772 4.37932 18.8312 4.72753 18.8312H17.1695C17.5177 18.8312 17.8 19.1772 17.8 19.604V21.2526ZM22 6.58379C22 5.7401 21.4401 5.05386 20.7518 5.05386C20.0634 5.05386 19.5036 5.7401 19.5036 6.58379C19.5036 6.8586 19.5638 7.11599 19.6677 7.33907L17.8 9.18683L16 10.0701H14.0973L12.5 8.57399L11.9587 4.82758C12.6299 4.40687 13.0909 3.55103 13.0909 2.56525C13.0909 1.16473 12.1612 0.0254211 11.0186 0.0254211C9.87606 0.0254211 8.94645 1.16483 8.94645 2.56525C8.94645 3.55103 9.4073 4.40677 10.0786 4.82758L9.5 8.57399L7.93999 10.0701H6L4.12502 9.18683L2.33959 7.32444C2.43921 7.10476 2.49638 6.85242 2.49638 6.58379C2.49638 5.7401 1.93649 5.05386 1.24815 5.05386C0.559804 5.05386 0 5.7401 0 6.58379C0 7.20368 0.302811 7.73753 0.736262 7.97761L3.54033 16.4929C3.63658 16.7852 3.86785 16.9765 4.12502 16.9765H17.9961C18.2556 16.9765 18.4886 16.7815 18.5832 16.4854L21.3099 7.9502C21.7185 7.69858 22 7.18132 22 6.58379Z" fill="white"/>
</svg>
