<svg width="22" height="22" viewBox="0 0 22 22" fill="none" xmlns="http://www.w3.org/2000/svg">
<path d="M7.53717 4.0678L6.35797 3.7598L4.14037 2.5102L6.73637 1.562H15.2328L17.8156 2.6488L15.3384 3.8544L14.5024 4.0568H7.53717V4.0678ZM16.841 8.0102L15.4792 5.1766L18.5878 3.4298L21.274 5.7112L16.841 8.0102ZM16.9466 9.3654L21.78 6.8398L11.6006 20.2884L16.9466 9.3654ZM0.219971 7.0642L5.38337 9.3874L10.934 20.3522L0.219971 7.0642ZM5.66497 8.0322L0.219971 5.731L3.14597 3.5354L6.63957 5.3592L5.66497 8.0322ZM7.63617 5.423L14.5266 5.4868L15.7476 8.1818L6.80897 8.118L7.63617 5.423ZM6.59777 9.4292L15.642 9.3874L11.297 20.4358L6.59777 9.4292Z" fill="#E26056"/>
</svg>
